<svg width="13" height="13" viewBox="0 0 13 13" fill="none" xmlns="http://www.w3.org/2000/svg">
<path d="M12.6921 11.1192L9.70335 8.13022C10.2112 7.32176 10.5059 6.36621 10.5059 5.34073C10.5059 2.4395 8.15396 0.0878906 5.25284 0.0878906C2.35172 0.0878906 0 2.4395 0 5.34073C0 8.24207 2.35161 10.5935 5.25284 10.5935C6.36883 10.5935 7.40253 10.2446 8.25312 9.6517L11.2063 12.6051C11.4115 12.8101 11.6806 12.9122 11.9492 12.9122C12.2182 12.9122 12.4869 12.8101 12.6925 12.6051C13.1025 12.1946 13.1026 11.5296 12.6921 11.1192ZM5.25284 8.89162C3.29194 8.89162 1.70217 7.30195 1.70217 5.34095C1.70217 3.37994 3.29194 1.79017 5.25284 1.79017C7.21384 1.79017 8.80351 3.37994 8.80351 5.34095C8.80351 7.30195 7.21384 8.89162 5.25284 8.89162Z" fill="#6D7878"/>
</svg>
