<svg width="40" height="40" viewBox="0 0 40 40" fill="none" xmlns="http://www.w3.org/2000/svg">
<path d="M37.2723 32.7273H30.9087C26.8987 32.7273 23.6362 29.4648 23.6362 25.4548C23.6362 21.4447 26.8987 18.1822 30.9087 18.1822H37.2723C37.7748 18.1822 38.1814 17.7756 38.1814 17.2731V14.5458C38.1814 12.6395 36.7027 11.0892 34.8345 10.9388L29.6136 1.81965C29.1297 0.976257 28.3485 0.373454 27.4136 0.123146C26.4832 -0.125458 25.5103 0.00510802 24.6775 0.489788L6.77984 10.9095H3.63645C1.631 10.9095 0.00012207 12.5403 0.00012207 14.5458V36.3637C0.00012207 38.3691 1.63092 40 3.63645 40H34.5451C36.5505 40 38.1814 38.3692 38.1814 36.3637V33.6364C38.1814 33.1339 37.7748 32.7273 37.2723 32.7273ZM30.741 7.44967L32.7218 10.9095H24.7983L30.741 7.44967ZM10.3934 10.9095L25.5928 2.0611C26.0038 1.8205 26.4841 1.75659 26.9431 1.87914C27.4074 2.0034 27.7945 2.30348 28.0351 2.72339L28.037 2.72671L13.9824 10.9095H10.3934Z" fill="#FF922D"/>
<path d="M37.2724 20H30.9089C27.9011 20 25.4544 22.4467 25.4544 25.4545C25.4544 28.4622 27.9011 30.9089 30.9089 30.9089H37.2724C38.7763 30.9089 39.9997 29.6856 39.9997 28.1817V22.7272C39.9997 21.2233 38.7763 20 37.2724 20ZM30.9089 27.2726C29.9066 27.2726 29.0907 26.4567 29.0907 25.4545C29.0907 24.4522 29.9066 23.6363 30.9089 23.6363C31.9111 23.6363 32.727 24.4522 32.727 25.4545C32.7271 26.4567 31.9112 27.2726 30.9089 27.2726Z" fill="#FF922D"/>
</svg>
