<svg width="31" height="31" viewBox="0 0 31 31" fill="none" xmlns="http://www.w3.org/2000/svg">
<path d="M15.5 0C6.95363 0 0 6.95363 0 15.5C0 24.0464 6.95363 31 15.5 31C24.0464 31 31 24.0464 31 15.5C31 6.95363 24.0464 0 15.5 0ZM24.1629 11.4211L14.2569 21.2494C13.6742 21.8321 12.7419 21.8709 12.1203 21.2882L6.87594 16.51C6.25439 15.9273 6.21554 14.9561 6.7594 14.3346C7.34211 13.713 8.31328 13.6742 8.93484 14.2569L13.0915 18.0639L21.9486 9.20677C22.5702 8.58521 23.5414 8.58521 24.1629 9.20677C24.7845 9.82832 24.7845 10.7995 24.1629 11.4211Z" fill="white"/>
</svg>
