<svg width="18" height="20" viewBox="0 0 18 20" fill="none" xmlns="http://www.w3.org/2000/svg">
<path d="M9.00142 10.3855C11.8586 10.3855 14.1942 8.04991 14.1942 5.19275C14.1942 2.33559 11.8586 0 9.00142 0C6.14426 0 3.80872 2.33559 3.80872 5.19275C3.80872 8.04991 6.14431 10.3855 9.00142 10.3855Z" fill="#CCCCCC"/>
<path d="M17.913 14.535C17.7769 14.1949 17.5955 13.8774 17.3915 13.5826C16.3484 12.0407 14.7384 11.0203 12.9244 10.7708C12.6976 10.7482 12.4482 10.7935 12.2668 10.9296C11.3144 11.6325 10.1806 11.9953 9.00144 11.9953C7.82228 11.9953 6.68851 11.6325 5.73612 10.9296C5.5547 10.7935 5.30526 10.7255 5.07853 10.7708C3.26446 11.0203 1.63183 12.0407 0.611427 13.5826C0.407347 13.8774 0.225923 14.2176 0.0898991 14.535C0.0218869 14.6711 0.0445432 14.8298 0.112555 14.9659C0.293979 15.2833 0.520715 15.6008 0.724795 15.8729C1.04224 16.3038 1.38239 16.6892 1.76789 17.052C2.08534 17.3695 2.44815 17.6643 2.81099 17.9591C4.60236 19.297 6.75657 19.9999 8.97879 19.9999C11.201 19.9999 13.3552 19.2969 15.1466 17.9591C15.5094 17.687 15.8722 17.3695 16.1897 17.052C16.5525 16.6892 16.9153 16.3037 17.2328 15.8729C17.4595 15.5781 17.6636 15.2833 17.845 14.9659C17.9583 14.8298 17.981 14.671 17.913 14.535Z" fill="#CCCCCC"/>
</svg>
