<svg width="20" height="20" viewBox="0 0 20 20" fill="none" xmlns="http://www.w3.org/2000/svg">
<path d="M7.51516 7.36322V5.45413H8.54546C8.72728 5.45413 8.84849 5.33292 8.84849 5.1511V3.54504C8.84849 3.39353 8.72728 3.24201 8.54546 3.24201H7.51516V1.72686C7.51516 1.57534 7.36365 1.42383 7.21213 1.42383H5.45456C5.27274 1.42383 5.15152 1.57534 5.15152 1.72686V3.24201H4.09092C3.9394 3.24201 3.78789 3.39353 3.78789 3.54504V5.1511C3.78789 5.33292 3.9394 5.45413 4.09092 5.45413H5.15152V7.36322C2.33334 7.93898 0.30304 10.3632 0.30304 13.2723C0.30304 16.6056 3.00001 19.3026 6.33334 19.3026C9.66668 19.3026 12.3636 16.6056 12.3636 13.2723C12.3636 10.3632 10.3333 7.93898 7.51516 7.36322ZM6.33334 16.7572C4.45455 16.7572 2.9091 15.2117 2.9091 13.3329C2.9091 11.4541 4.45455 9.90868 6.33334 9.90868C8.21213 9.90868 9.75759 11.4541 9.75759 13.3329C9.75759 15.242 8.21213 16.7572 6.33334 16.7572Z" fill="#CCCCCC"/>
<path d="M14.8485 6.63619V4.30285H15.6364C15.7576 4.30285 15.8485 4.24225 15.9091 4.15134C15.9697 4.06043 15.9697 3.93922 15.9091 3.84831L13.9394 0.818004C13.8182 0.636186 13.5455 0.636186 13.4242 0.818004L11.4545 3.84831C11.3939 3.93922 11.3939 4.06043 11.4545 4.15134C11.5152 4.24225 11.6061 4.30285 11.7273 4.30285H12.5152V6.63619C11.6061 6.818 10.7576 7.21194 10.0303 7.7574C10.7879 8.24225 11.4242 8.87861 11.9091 9.63619C14.1515 8.27255 17.1212 9.87861 17.1212 12.5453C17.1212 14.9089 14.7273 16.5756 12.5152 15.7574C12.1818 16.6059 11.6667 17.3332 11.0606 17.9695C15 19.9089 19.7273 17.0301 19.7273 12.5453C19.697 9.69679 17.6364 7.18164 14.8485 6.63619Z" fill="#CCCCCC"/>
</svg>
