<svg width="18" height="20" viewBox="0 0 18 20" fill="none" xmlns="http://www.w3.org/2000/svg">
<path d="M15.6163 3.48837C14.1512 1.25581 11.7326 0 9.01164 0C6.31397 0 3.89536 1.25581 2.38374 3.48837C0.872108 5.67442 0.52327 8.46512 1.4535 10.907C1.70932 11.5581 2.10467 12.2326 2.61629 12.8372L8.50001 19.7674C8.63955 19.907 8.77908 20 8.98839 20C9.19769 20 9.33722 19.907 9.47676 19.7674L15.3837 12.8372C15.8954 12.2326 16.314 11.5814 16.5465 10.907C17.4768 8.46512 17.1279 5.67442 15.6163 3.48837ZM9.01164 11.7209C7.01164 11.7209 5.36048 10.0698 5.36048 8.06977C5.36048 6.06977 7.01164 4.4186 9.01164 4.4186C11.0116 4.4186 12.6628 6.06977 12.6628 8.06977C12.6628 10.0698 11.0349 11.7209 9.01164 11.7209Z" fill="#CCCCCC"/>
</svg>
