<svg width="20" height="20" viewBox="0 0 20 20" fill="none" xmlns="http://www.w3.org/2000/svg">
<path d="M8.75 6.24969V4.99969H1.25C0.56125 4.99969 0 5.56094 0 6.24969V8.74969H9.01375C8.84 7.98594 8.75 7.16344 8.75 6.24969Z" fill="#727272"/>
<path d="M19.9487 11.2497C19.0962 12.5634 17.7962 13.6809 15.9338 14.7509C15.6475 14.9147 15.325 14.9997 15 14.9997C14.675 14.9997 14.3525 14.9147 14.07 14.7534C12.2075 13.6809 10.9075 12.5622 10.0538 11.2497H0V17.4997C0 18.1897 0.56125 18.7497 1.25 18.7497H18.75C19.44 18.7497 20 18.1897 20 17.4997V11.2497H19.9487ZM5.625 14.9997H3.125C2.78 14.9997 2.5 14.7197 2.5 14.3747C2.5 14.0297 2.78 13.7497 3.125 13.7497H5.625C5.97 13.7497 6.25 14.0297 6.25 14.3747C6.25 14.7197 5.97 14.9997 5.625 14.9997Z" fill="#727272"/>
<path d="M19.6212 3.17594L15.2462 1.30094C15.0875 1.23344 14.9113 1.23344 14.7525 1.30094L10.3775 3.17594C10.1488 3.27344 10 3.49969 10 3.74969V6.24969C10 9.68844 11.2713 11.6984 14.6888 13.6672C14.785 13.7222 14.8925 13.7497 15 13.7497C15.1075 13.7497 15.215 13.7222 15.3112 13.6672C18.7287 11.7034 20 9.69344 20 6.24969V3.74969C20 3.49969 19.8512 3.27344 19.6212 3.17594ZM17.3637 6.01594L14.8637 9.14094C14.7437 9.28844 14.5637 9.37469 14.375 9.37469C14.3663 9.37469 14.3563 9.37469 14.3488 9.37469C14.15 9.36594 13.9662 9.26344 13.855 9.09719L12.605 7.22219C12.4137 6.93469 12.4912 6.54719 12.7787 6.35594C13.0637 6.16594 13.4525 6.24094 13.645 6.52969L14.4212 7.69344L16.3863 5.23594C16.6025 4.96719 16.9963 4.92469 17.265 5.13844C17.535 5.35219 17.5775 5.74594 17.3637 6.01594Z" fill="#727272"/>
</svg>
