<svg width="44" height="44" viewBox="0 0 44 44" fill="none" xmlns="http://www.w3.org/2000/svg">
<path d="M36.4375 5.49998H33V3.66665C33 3.18042 32.8069 2.7141 32.4631 2.37028C32.1193 2.02647 31.6529 1.83331 31.1667 1.83331C30.6805 1.83331 30.2142 2.02647 29.8703 2.37028C29.5265 2.7141 29.3334 3.18042 29.3334 3.66665V5.49998H23.8334V3.66665C23.8334 3.18042 23.6402 2.7141 23.2964 2.37028C22.9526 2.02647 22.4863 1.83331 22 1.83331C21.5138 1.83331 21.0475 2.02647 20.7037 2.37028C20.3599 2.7141 20.1667 3.18042 20.1667 3.66665V5.49998H14.6667V3.66665C14.6667 3.18042 14.4736 2.7141 14.1297 2.37028C13.7859 2.02647 13.3196 1.83331 12.8334 1.83331C12.3471 1.83331 11.8808 2.02647 11.537 2.37028C11.1932 2.7141 11 3.18042 11 3.66665V5.49998H7.56254C6.04367 5.50192 4.58756 6.10615 3.51355 7.18016C2.43954 8.25416 1.83531 9.71027 1.83337 11.2291V16.5H42.1667V11.2291C42.1648 9.71027 41.5605 8.25416 40.4865 7.18016C39.4125 6.10615 37.9564 5.50192 36.4375 5.49998Z" fill="white"/>
<path d="M1.83337 36.4375C1.83531 37.9563 2.43954 39.4124 3.51355 40.4865C4.58756 41.5605 6.04367 42.1647 7.56254 42.1666H36.4375C37.9564 42.1647 39.4125 41.5605 40.4865 40.4865C41.5605 39.4124 42.1648 37.9563 42.1667 36.4375V20.1666H1.83337V36.4375ZM15.2039 29.0711C15.5477 28.7274 16.0139 28.5344 16.5 28.5344C16.9862 28.5344 17.4524 28.7274 17.7962 29.0711L20.1667 31.4398L26.2039 25.4045C26.5496 25.0705 27.0128 24.8857 27.4934 24.8899C27.9741 24.8941 28.434 25.0869 28.7739 25.4268C29.1138 25.7667 29.3066 26.2265 29.3108 26.7072C29.315 27.1879 29.1302 27.651 28.7962 27.9968L21.4629 35.3301C21.1191 35.6738 20.6528 35.8669 20.1667 35.8669C19.6806 35.8669 19.2143 35.6738 18.8705 35.3301L15.2039 31.6635C14.8602 31.3197 14.6671 30.8534 14.6671 30.3673C14.6671 29.8812 14.8602 29.4149 15.2039 29.0711Z" fill="white"/>
</svg>
