<svg width="42" height="42" viewBox="0 0 42 42" fill="none" xmlns="http://www.w3.org/2000/svg">
<g clip-path="url(#clip0_3130_8312)">
<path d="M39.1359 34.3637H32.4542C28.2436 34.3637 24.818 30.938 24.818 26.7275C24.818 22.5169 28.2436 19.0913 32.4542 19.0913H39.1359C39.6635 19.0913 40.0905 18.6643 40.0905 18.1367V15.2731C40.0905 13.2715 38.5379 11.6436 36.5762 11.4858L31.0942 1.91063C30.5862 1.02507 29.7659 0.392127 28.7843 0.129303C27.8074 -0.131731 26.7858 0.00536342 25.9114 0.514277L7.11883 11.455H3.81827C1.71255 11.455 0.00012207 13.1673 0.00012207 15.2731V38.1819C0.00012207 40.2876 1.71246 42 3.81827 42H36.2723C38.378 42 40.0905 40.2877 40.0905 38.1819V35.3183C40.0905 34.7906 39.6635 34.3637 39.1359 34.3637ZM32.2781 7.82216L34.3579 11.455H26.0382L32.2781 7.82216ZM10.9131 11.455L26.8724 2.16415C27.304 1.91153 27.8083 1.84441 28.2902 1.9731C28.7778 2.10357 29.1842 2.41865 29.4368 2.85956L29.4388 2.86305L14.6815 11.455H10.9131Z" fill="white"/>
<path d="M39.1361 21.0003H32.4544C29.2962 21.0003 26.7272 23.5693 26.7272 26.7275C26.7272 29.8857 29.2962 32.4547 32.4544 32.4547H39.1361C40.7152 32.4547 41.9997 31.1702 41.9997 29.5911V23.8639C41.9997 22.2848 40.7152 21.0003 39.1361 21.0003ZM32.4544 28.6365C31.402 28.6365 30.5453 27.7799 30.5453 26.7275C30.5453 25.6751 31.402 24.8185 32.4544 24.8185C33.5067 24.8185 34.3634 25.6751 34.3634 26.7275C34.3635 27.7799 33.5068 28.6365 32.4544 28.6365Z" fill="white"/>
</g>
<defs>
<clipPath id="clip0_3130_8312">
<rect width="42" height="42" fill="white"/>
</clipPath>
</defs>
</svg>
