<svg width="26" height="26" viewBox="0 0 26 26" fill="none" xmlns="http://www.w3.org/2000/svg">
<path d="M6.5 3.25V22.75C6.5 23.181 6.3288 23.5943 6.02405 23.899C5.7193 24.2038 5.30598 24.375 4.875 24.375H3.25C2.81902 24.375 2.4057 24.2038 2.10095 23.899C1.7962 23.5943 1.625 23.181 1.625 22.75V3.25C1.625 2.81902 1.7962 2.4057 2.10095 2.10095C2.4057 1.7962 2.81902 1.625 3.25 1.625H4.875C5.30598 1.625 5.7193 1.7962 6.02405 2.10095C6.3288 2.4057 6.5 2.81902 6.5 3.25ZM24.375 21.7831L19.3294 2.94938C19.2171 2.53362 18.9444 2.17944 18.5711 1.96463C18.1979 1.74983 17.7546 1.69196 17.3387 1.80375L15.7706 2.22625C15.3549 2.33853 15.0007 2.61125 14.7859 2.98449C14.5711 3.35774 14.5132 3.80099 14.625 4.21688L19.6706 23.0506C19.7635 23.3955 19.9674 23.7003 20.2509 23.9176C20.5344 24.135 20.8815 24.2529 21.2388 24.2531C21.3815 24.2537 21.5237 24.2346 21.6612 24.1963L23.2294 23.7738C23.6451 23.6615 23.9993 23.3888 24.2141 23.0155C24.4289 22.6423 24.4868 22.199 24.375 21.7831ZM11.375 1.625H9.75C9.31902 1.625 8.9057 1.7962 8.60095 2.10095C8.29621 2.4057 8.125 2.81902 8.125 3.25V22.75C8.125 23.181 8.29621 23.5943 8.60095 23.899C8.9057 24.2038 9.31902 24.375 9.75 24.375H11.375C11.806 24.375 12.2193 24.2038 12.524 23.899C12.8288 23.5943 13 23.181 13 22.75V3.25C13 2.81902 12.8288 2.4057 12.524 2.10095C12.2193 1.7962 11.806 1.625 11.375 1.625Z" fill="white"/>
</svg>
