<svg width="52" height="62" viewBox="0 0 52 62" fill="none" xmlns="http://www.w3.org/2000/svg">
<path d="M47.3554 9.64478V6.7332C47.3554 5.53038 46.273 4.61709 45.0873 4.81943L7.55664 11.2271" stroke="#FF922D" stroke-width="0.996094" stroke-miterlimit="10" stroke-linecap="round" stroke-linejoin="round"/>
<path d="M4.64441 55.2674V59.1503C4.64441 60.2224 5.51362 61.0916 6.58578 61.0916H45.4139C46.4861 61.0916 47.3553 60.2224 47.3553 59.1503V25.7441" stroke="#FF922D" stroke-width="0.996094" stroke-miterlimit="10" stroke-linecap="round" stroke-linejoin="round"/>
<path d="M46.0226 4.98071L15.7753 17.4354C14.9414 17.7789 13.9806 17.5027 13.4564 16.7687L10.6263 12.8066C9.91816 11.8152 8.7748 11.2268 7.55647 11.2268C5.9481 11.2268 4.64441 12.5307 4.64441 14.1389V51.3847" stroke="#FF922D" stroke-width="0.996094" stroke-miterlimit="10" stroke-linecap="round" stroke-linejoin="round"/>
<path d="M26.4812 40.4662L22.1172 42.6481L24.2992 38.2842C24.6725 37.5376 25.1637 36.8561 25.7539 36.2659L48.2084 13.8114C48.5874 13.4323 49.2021 13.4323 49.5812 13.8114L50.9541 15.1842C51.3331 15.5632 51.3331 16.1779 50.9541 16.557L28.4993 39.0115C27.9091 39.6017 27.2277 40.0928 26.4812 40.4662Z" stroke="#FF922D" stroke-width="0.996094" stroke-miterlimit="10" stroke-linecap="round" stroke-linejoin="round"/>
<path d="M26.2354 35.7849L28.981 38.5305" stroke="#FF922D" stroke-width="0.996094" stroke-miterlimit="10" stroke-linecap="round" stroke-linejoin="round"/>
<path d="M46.1492 15.8708L48.8948 18.6164" stroke="#FF922D" stroke-width="0.996094" stroke-miterlimit="10" stroke-linecap="round" stroke-linejoin="round"/>
<path d="M11.4393 26.1467L14.3514 29.0589L19.205 24.2053" stroke="#FF922D" stroke-width="0.996094" stroke-miterlimit="10" stroke-linecap="round" stroke-linejoin="round"/>
<path d="M25.0292 25.1758H30.8535" stroke="#FF922D" stroke-width="0.996094" stroke-miterlimit="10" stroke-linecap="round" stroke-linejoin="round"/>
<path d="M25.0292 29.0586H26.9706" stroke="#FF922D" stroke-width="0.996094" stroke-miterlimit="10" stroke-linecap="round" stroke-linejoin="round"/>
<path d="M37.6484 35.8535H40.5605" stroke="#FF922D" stroke-width="0.996094" stroke-miterlimit="10" stroke-linecap="round" stroke-linejoin="round"/>
<path d="M33.7655 39.7361H40.5604" stroke="#FF922D" stroke-width="0.996094" stroke-miterlimit="10" stroke-linecap="round" stroke-linejoin="round"/>
<path d="M11.4393 36.8244L14.3514 39.7365L19.205 34.8831" stroke="#FF922D" stroke-width="0.996094" stroke-miterlimit="10" stroke-linecap="round" stroke-linejoin="round"/>
<path d="M11.4393 47.5017L14.3514 50.4139L19.205 45.5603" stroke="#FF922D" stroke-width="0.996094" stroke-miterlimit="10" stroke-linecap="round" stroke-linejoin="round"/>
<path d="M25.0292 46.5315H40.5605" stroke="#FF922D" stroke-width="0.996094" stroke-miterlimit="10" stroke-linecap="round" stroke-linejoin="round"/>
<path d="M25.0292 50.4141H40.5605" stroke="#FF922D" stroke-width="0.996094" stroke-miterlimit="10" stroke-linecap="round" stroke-linejoin="round"/>
<path d="M4.64447 57.2089H2.70309C1.63093 57.2089 0.761719 56.3397 0.761719 55.2676V2.84958C0.761719 1.77741 1.63093 0.908203 2.70309 0.908203H41.5312C42.6034 0.908203 43.4726 1.77741 43.4726 2.84958V4.79095" stroke="#FF922D" stroke-width="0.996094" stroke-miterlimit="10" stroke-linecap="round" stroke-linejoin="round"/>
</svg>
