<svg width="23" height="23" viewBox="0 0 23 23" fill="none" xmlns="http://www.w3.org/2000/svg">
<path d="M9.21521 2.03219C9.77778 0.117128 12.4905 0.117128 13.053 2.03219L14.1764 5.85621C14.4265 6.70769 15.2079 7.2925 16.0953 7.2925H20.1271C22.0155 7.2925 22.8519 9.66862 21.3799 10.8515L17.7827 13.7422C17.1513 14.2496 16.8883 15.0877 17.1166 15.8649L18.4071 20.2581C18.959 22.1368 16.7617 23.6074 15.2354 22.3808L12.3869 20.0918C11.6552 19.5038 10.613 19.5038 9.88132 20.0918L7.03284 22.3808C5.50652 23.6074 3.30922 22.1368 3.86111 20.2581L5.15166 15.8649C5.37997 15.0877 5.11696 14.2496 4.48556 13.7422L0.888348 10.8515C-0.583626 9.66862 0.252797 7.2925 2.14116 7.2925H6.17294C7.0604 7.2925 7.84172 6.70769 8.09185 5.85621L9.21521 2.03219Z" fill="white"/>
</svg>
