<svg width="20" height="20" viewBox="0 0 20 20" fill="none" xmlns="http://www.w3.org/2000/svg">
<path d="M9.99994 13.0809C11.7004 13.0809 13.079 11.7024 13.079 10.0019C13.079 8.30138 11.7004 6.92285 9.99994 6.92285C8.29943 6.92285 6.9209 8.30138 6.9209 10.0019C6.9209 11.7024 8.29943 13.0809 9.99994 13.0809Z" fill="#6D7878"/>
<path d="M19.6932 9.14922C17.3265 6.28918 13.7438 3.53613 10 3.53613C6.25555 3.53613 2.67205 6.2911 0.306845 9.14922C-0.102282 9.6434 -0.102282 10.3608 0.306845 10.855C0.901484 11.5736 2.14811 12.9607 3.8131 14.1727C8.00632 17.2252 11.9845 17.232 16.187 14.1727C17.852 12.9607 19.0986 11.5736 19.6932 10.855C20.1012 10.3618 20.1033 9.64502 19.6932 9.14922ZM10 5.69146C12.3771 5.69146 14.3107 7.62509 14.3107 10.0021C14.3107 12.3791 12.3771 14.3128 10 14.3128C7.62302 14.3128 5.68939 12.3791 5.68939 10.0021C5.68939 7.62509 7.62302 5.69146 10 5.69146Z" fill="#6D7878"/>
</svg>
