<svg width="36" height="36" viewBox="0 0 36 36" fill="none" xmlns="http://www.w3.org/2000/svg">
<g clip-path="url(#clip0_11_2)">
<path d="M33.8631 18.8578L30.393 17.447L30.4857 15.0363C30.4926 14.8586 30.4266 14.6856 30.3034 14.5574C30.18 14.4291 30.0097 14.3566 29.8316 14.3566H28.3613C28.1834 14.3566 28.0133 14.4291 27.8897 14.5573C27.7663 14.6855 27.7005 14.8584 27.7071 15.0362L27.7588 16.3759L27.0235 16.077L27.1075 13.8897C27.1144 13.7119 27.0485 13.539 26.9252 13.4108C26.8018 13.2826 26.6316 13.2101 26.4535 13.2101H24.9833C24.8053 13.2101 24.6351 13.2826 24.5114 13.4108C24.3882 13.5389 24.3224 13.7117 24.329 13.8897L24.3717 14.9988L21.5954 13.8701C21.6242 11.9729 21.6033 10.0745 21.5555 8.17795C21.5301 7.16318 21.4833 6.14823 21.4212 5.13547C21.3828 4.50938 21.3406 3.88216 21.2734 3.25895C21.2248 2.81405 21.1035 2.38007 20.9177 1.98369C20.2806 0.625797 18.9299 -0.166257 17.5754 0.0295267C16.2679 0.21849 15.1564 1.30881 14.813 2.74112C14.759 2.9662 14.7286 3.19512 14.7061 3.42649C14.6699 3.79917 14.6406 4.17264 14.6143 4.54646C14.5464 5.5134 14.4987 6.482 14.4651 7.45112C14.3918 9.55578 14.3768 11.6618 14.4019 13.7677C14.4023 13.8019 14.4031 13.836 14.4037 13.8703L11.628 14.9988L11.6705 13.8897C11.6774 13.7119 11.6115 13.539 11.4881 13.4108C11.3648 13.2826 11.1945 13.2101 11.0165 13.2101H9.54613C9.36819 13.2101 9.19803 13.2826 9.07447 13.4108C8.95109 13.5389 8.88533 13.7117 8.89215 13.8897L8.97618 16.0769L8.24088 16.3759L8.29239 15.0363C8.29929 14.8586 8.23327 14.6856 8.10998 14.5574C7.9866 14.4291 7.81635 14.3566 7.6384 14.3566H6.16789C5.99012 14.3566 5.81995 14.4291 5.6964 14.5573C5.57284 14.6855 5.50717 14.8584 5.51408 15.0362L5.60668 17.4469L2.1368 18.8578C1.82821 18.9833 1.62622 19.2831 1.62622 19.6165V22.7079C1.62622 22.9528 1.7357 23.1847 1.92484 23.3402C2.11371 23.4958 2.36283 23.5585 2.60269 23.5115L14.6529 21.1499C14.7484 22.9678 14.8652 24.7846 15.0185 26.5976C15.12 27.7963 15.2324 28.9933 15.3623 30.1881L10.2766 32.2558C9.96804 32.3812 9.76623 32.6813 9.76623 33.0144V34.4882C9.76623 34.9406 10.1329 35.3072 10.585 35.3072H16.4838C16.8395 35.6927 17.3063 35.94 17.8056 35.9904C18.4338 36.054 19.065 35.7985 19.5169 35.3072H25.4148C25.8671 35.3072 26.2337 34.9406 26.2337 34.4882V33.0144C26.2337 32.6813 26.0318 32.3812 25.7234 32.2558L20.6411 30.1894C20.744 29.237 20.8341 28.283 20.9163 27.3293C21.0944 25.2727 21.238 23.2122 21.344 21.1493L33.3972 23.5115C33.4494 23.5217 33.5022 23.5269 33.5546 23.5269C33.7429 23.5269 33.9273 23.4619 34.0751 23.3402C34.2642 23.1847 34.3736 22.9527 34.3736 22.7079V19.6165C34.3736 19.2831 34.1717 18.9832 33.8631 18.8578Z" fill="#FFB742"/>
</g>
<defs>
<clipPath id="clip0_11_2">
<rect width="36" height="36" fill="white"/>
</clipPath>
</defs>
</svg>
