<svg width="50" height="50" viewBox="0 0 50 50" fill="none" xmlns="http://www.w3.org/2000/svg">
<g clip-path="url(#clip0_21_2)">
<path d="M12.0293 26.6077L34.7566 49.3343C35.644 50.2219 37.0831 50.2219 37.9707 49.3342C38.8581 48.4466 38.8581 47.0077 37.9705 46.1201L16.8504 25.0004L37.9707 3.87964C38.8581 2.99206 38.8581 1.55313 37.9705 0.66555C37.5269 0.221762 36.9452 -5.69766e-05 36.3636 -5.69766e-05C35.7819 -5.69766e-05 35.2002 0.221763 34.7564 0.665703L12.0293 23.3936C11.603 23.8198 11.3636 24.3978 11.3636 25.0005C11.3636 25.6033 11.603 26.1815 12.0293 26.6077Z" fill="#FFB742"/>
</g>
<defs>
<clipPath id="clip0_21_2">
<rect width="50" height="50" fill="white" transform="translate(50 50) rotate(-180)"/>
</clipPath>
</defs>
</svg>
