<svg width="20" height="20" viewBox="0 0 20 20" fill="none" xmlns="http://www.w3.org/2000/svg">
<g clip-path="url(#clip0_34_21)">
<path d="M10 6.10352e-05C4.48596 6.10352e-05 0 4.48602 0 10.0001C0 15.5141 4.48596 20 10 20C15.514 20 20 15.514 20 10.0001C20 4.48609 15.514 6.10352e-05 10 6.10352e-05ZM10 19.0032C5.03555 19.0032 0.996717 14.9644 0.996717 10.0001C0.996717 5.03568 5.03555 0.996779 10 0.996779C14.9645 0.996779 19.0033 5.03561 19.0033 9.99999C19.0033 14.9644 14.9644 19.0032 10 19.0032Z" fill="#FFB742"/>
<path d="M9.50165 9.5017H5.52501V10.4984H10.4984V2.91592H9.50165V9.5017Z" fill="#FFB742"/>
</g>
<defs>
<clipPath id="clip0_34_21">
<rect width="20" height="20" fill="white"/>
</clipPath>
</defs>
</svg>
