<svg width="20" height="20" viewBox="0 0 20 20" fill="none" xmlns="http://www.w3.org/2000/svg">
<path d="M14.2857 14.2857H17.619C18.8233 14.2857 19.0476 14.0338 19.0476 12.8571V2.85715C19.0476 1.70953 18.7667 1.42857 17.619 1.42857H2.38095C1.20476 1.42857 0.952377 1.68095 0.952377 2.85715V12.8433C0.952377 14.0191 1.14762 14.2857 2.38095 14.2857H8.57142C8.57142 14.2857 13.1248 18.4552 13.6905 18.9581C13.8914 19.1367 14.3005 19.04 14.2857 18.5714V14.2857ZM3.80952 10H13.8095V11.4286H3.80952V10ZM3.80952 7.14286H10V8.57143H3.80952V7.14286ZM3.80952 4.28572H16.1905V5.71429H3.80952V4.28572Z" fill="#FFB742"/>
</svg>
