<svg width="20" height="20" viewBox="0 0 20 20" fill="none" xmlns="http://www.w3.org/2000/svg">
<g clip-path="url(#clip0_24_2)">
<path d="M9.99984 0C4.48591 0 0 4.48597 0 10C0 15.5141 4.48591 20.0001 9.99984 20.0001C11.4055 20.0001 12.7651 19.714 14.041 19.1498C14.3864 18.997 14.5426 18.5932 14.3898 18.2477C14.237 17.9022 13.833 17.7463 13.4878 17.8989C12.3873 18.3855 11.2138 18.6324 9.99984 18.6324C5.24008 18.6324 1.36771 14.7599 1.36771 10C1.36771 5.24014 5.24008 1.36771 9.99984 1.36771C14.7597 1.36771 18.6322 5.24014 18.6322 10C18.6322 10.902 18.4938 11.7907 18.2209 12.6412C17.633 14.4726 16.6672 15.0377 16.1971 14.9646C15.7464 14.894 15.7114 14.2199 15.7114 14.015V5.89291C15.7114 5.51524 15.4052 5.20906 15.0275 5.20906C14.6498 5.20906 14.3436 5.51524 14.3436 5.89291V6.29533C13.2953 5.06775 11.737 4.28846 9.99991 4.28846C6.85056 4.28846 4.28834 6.85069 4.28834 10C4.28834 13.1494 6.85056 15.7116 9.99991 15.7116C11.737 15.7116 13.2953 14.9323 14.3436 13.7047V14.015C14.3436 15.2565 14.9881 16.1597 15.9856 16.3159C17.1661 16.5003 18.7187 15.5657 19.5232 13.0592C19.8395 12.0734 19.9999 11.0441 19.9999 10C19.9999 4.48597 15.5139 0 9.99984 0ZM9.99984 14.3439C7.60467 14.3439 5.65599 12.3952 5.65599 10C5.65599 7.60486 7.60467 5.65618 9.99984 5.65618C12.395 5.65618 14.3436 7.60486 14.3436 10C14.3436 12.3952 12.395 14.3439 9.99984 14.3439Z" fill="#FFB742"/>
</g>
<defs>
<clipPath id="clip0_24_2">
<rect width="20" height="20" fill="white"/>
</clipPath>
</defs>
</svg>
