<svg width="20" height="20" viewBox="0 0 20 20" fill="none" xmlns="http://www.w3.org/2000/svg">
<g clip-path="url(#clip0_32_82)">
<path d="M9.99978 8.01132C8.90352 8.01132 8.01088 8.90352 8.01088 9.99978C8.01088 11.0965 8.90352 11.9891 9.99978 11.9891C11.0965 11.9891 11.9887 11.0965 11.9887 9.99978C11.9887 8.90352 11.0965 8.01132 9.99978 8.01132ZM9.99978 8.01132C8.90352 8.01132 8.01088 8.90352 8.01088 9.99978C8.01088 11.0965 8.90352 11.9891 9.99978 11.9891C11.0965 11.9891 11.9887 11.0965 11.9887 9.99978C11.9887 8.90352 11.0965 8.01132 9.99978 8.01132ZM13.3131 4.76861H6.68685C5.62921 4.76861 4.76861 5.62921 4.76861 6.68685V13.3131C4.76861 14.3708 5.62921 15.2314 6.68685 15.2314H13.3131C14.3708 15.2314 15.2314 14.3708 15.2314 13.3131V6.68685C15.2314 5.62921 14.3708 4.76861 13.3131 4.76861ZM9.99978 13.4444C8.10085 13.4444 6.55564 11.8992 6.55564 9.99978C6.55564 8.10085 8.10085 6.55564 9.99978 6.55564C11.8992 6.55564 13.4444 8.10085 13.4444 9.99978C13.4444 11.8992 11.8992 13.4444 9.99978 13.4444ZM13.555 7.2679C13.1056 7.2679 12.74 6.90233 12.74 6.45294C12.74 6.00355 13.1056 5.63799 13.555 5.63799C14.0043 5.63799 14.3699 6.00355 14.3699 6.45294C14.3699 6.90233 14.0043 7.2679 13.555 7.2679ZM9.99978 8.01132C8.90352 8.01132 8.01088 8.90352 8.01088 9.99978C8.01088 11.0965 8.90352 11.9891 9.99978 11.9891C11.0965 11.9891 11.9887 11.0965 11.9887 9.99978C11.9887 8.90352 11.0965 8.01132 9.99978 8.01132ZM13.3131 4.76861H6.68685C5.62921 4.76861 4.76861 5.62921 4.76861 6.68685V13.3131C4.76861 14.3708 5.62921 15.2314 6.68685 15.2314H13.3131C14.3708 15.2314 15.2314 14.3708 15.2314 13.3131V6.68685C15.2314 5.62921 14.3708 4.76861 13.3131 4.76861ZM9.99978 13.4444C8.10085 13.4444 6.55564 11.8992 6.55564 9.99978C6.55564 8.10085 8.10085 6.55564 9.99978 6.55564C11.8992 6.55564 13.4444 8.10085 13.4444 9.99978C13.4444 11.8992 11.8992 13.4444 9.99978 13.4444ZM13.555 7.2679C13.1056 7.2679 12.74 6.90233 12.74 6.45294C12.74 6.00355 13.1056 5.63799 13.555 5.63799C14.0043 5.63799 14.3699 6.00355 14.3699 6.45294C14.3699 6.90233 14.0043 7.2679 13.555 7.2679ZM9.99978 8.01132C8.90352 8.01132 8.01088 8.90352 8.01088 9.99978C8.01088 11.0965 8.90352 11.9891 9.99978 11.9891C11.0965 11.9891 11.9887 11.0965 11.9887 9.99978C11.9887 8.90352 11.0965 8.01132 9.99978 8.01132ZM0 0V20H20V0H0ZM16.6866 13.3131C16.6866 15.1735 15.1735 16.6866 13.3131 16.6866H6.68685C4.82654 16.6866 3.31337 15.1735 3.31337 13.3131V6.68685C3.31337 4.82654 4.82654 3.31337 6.68685 3.31337H13.3131C15.1735 3.31337 16.6866 4.82654 16.6866 6.68685V13.3131ZM13.3131 4.76861H6.68685C5.62921 4.76861 4.76861 5.62921 4.76861 6.68685V13.3131C4.76861 14.3708 5.62921 15.2314 6.68685 15.2314H13.3131C14.3708 15.2314 15.2314 14.3708 15.2314 13.3131V6.68685C15.2314 5.62921 14.3708 4.76861 13.3131 4.76861ZM9.99978 13.4444C8.10085 13.4444 6.55564 11.8992 6.55564 9.99978C6.55564 8.10085 8.10085 6.55564 9.99978 6.55564C11.8992 6.55564 13.4444 8.10085 13.4444 9.99978C13.4444 11.8992 11.8992 13.4444 9.99978 13.4444ZM13.555 7.2679C13.1056 7.2679 12.74 6.90233 12.74 6.45294C12.74 6.00355 13.1056 5.63799 13.555 5.63799C14.0043 5.63799 14.3699 6.00355 14.3699 6.45294C14.3699 6.90233 14.0043 7.2679 13.555 7.2679ZM9.99978 8.01132C8.90352 8.01132 8.01088 8.90352 8.01088 9.99978C8.01088 11.0965 8.90352 11.9891 9.99978 11.9891C11.0965 11.9891 11.9887 11.0965 11.9887 9.99978C11.9887 8.90352 11.0965 8.01132 9.99978 8.01132ZM9.99978 8.01132C8.90352 8.01132 8.01088 8.90352 8.01088 9.99978C8.01088 11.0965 8.90352 11.9891 9.99978 11.9891C11.0965 11.9891 11.9887 11.0965 11.9887 9.99978C11.9887 8.90352 11.0965 8.01132 9.99978 8.01132ZM9.99978 8.01132C8.90352 8.01132 8.01088 8.90352 8.01088 9.99978C8.01088 11.0965 8.90352 11.9891 9.99978 11.9891C11.0965 11.9891 11.9887 11.0965 11.9887 9.99978C11.9887 8.90352 11.0965 8.01132 9.99978 8.01132ZM13.3131 4.76861H6.68685C5.62921 4.76861 4.76861 5.62921 4.76861 6.68685V13.3131C4.76861 14.3708 5.62921 15.2314 6.68685 15.2314H13.3131C14.3708 15.2314 15.2314 14.3708 15.2314 13.3131V6.68685C15.2314 5.62921 14.3708 4.76861 13.3131 4.76861ZM9.99978 13.4444C8.10085 13.4444 6.55564 11.8992 6.55564 9.99978C6.55564 8.10085 8.10085 6.55564 9.99978 6.55564C11.8992 6.55564 13.4444 8.10085 13.4444 9.99978C13.4444 11.8992 11.8992 13.4444 9.99978 13.4444ZM13.555 7.2679C13.1056 7.2679 12.74 6.90233 12.74 6.45294C12.74 6.00355 13.1056 5.63799 13.555 5.63799C14.0043 5.63799 14.3699 6.00355 14.3699 6.45294C14.3699 6.90233 14.0043 7.2679 13.555 7.2679ZM9.99978 8.01132C8.90352 8.01132 8.01088 8.90352 8.01088 9.99978C8.01088 11.0965 8.90352 11.9891 9.99978 11.9891C11.0965 11.9891 11.9887 11.0965 11.9887 9.99978C11.9887 8.90352 11.0965 8.01132 9.99978 8.01132ZM9.99978 8.01132C8.90352 8.01132 8.01088 8.90352 8.01088 9.99978C8.01088 11.0965 8.90352 11.9891 9.99978 11.9891C11.0965 11.9891 11.9887 11.0965 11.9887 9.99978C11.9887 8.90352 11.0965 8.01132 9.99978 8.01132ZM9.99978 8.01132C8.90352 8.01132 8.01088 8.90352 8.01088 9.99978C8.01088 11.0965 8.90352 11.9891 9.99978 11.9891C11.0965 11.9891 11.9887 11.0965 11.9887 9.99978C11.9887 8.90352 11.0965 8.01132 9.99978 8.01132ZM13.3131 4.76861H6.68685C5.62921 4.76861 4.76861 5.62921 4.76861 6.68685V13.3131C4.76861 14.3708 5.62921 15.2314 6.68685 15.2314H13.3131C14.3708 15.2314 15.2314 14.3708 15.2314 13.3131V6.68685C15.2314 5.62921 14.3708 4.76861 13.3131 4.76861ZM9.99978 13.4444C8.10085 13.4444 6.55564 11.8992 6.55564 9.99978C6.55564 8.10085 8.10085 6.55564 9.99978 6.55564C11.8992 6.55564 13.4444 8.10085 13.4444 9.99978C13.4444 11.8992 11.8992 13.4444 9.99978 13.4444ZM13.555 7.2679C13.1056 7.2679 12.74 6.90233 12.74 6.45294C12.74 6.00355 13.1056 5.63799 13.555 5.63799C14.0043 5.63799 14.3699 6.00355 14.3699 6.45294C14.3699 6.90233 14.0043 7.2679 13.555 7.2679ZM9.99978 8.01132C8.90352 8.01132 8.01088 8.90352 8.01088 9.99978C8.01088 11.0965 8.90352 11.9891 9.99978 11.9891C11.0965 11.9891 11.9887 11.0965 11.9887 9.99978C11.9887 8.90352 11.0965 8.01132 9.99978 8.01132Z" fill="#FFB742"/>
</g>
<defs>
<clipPath id="clip0_32_82">
<rect width="20" height="20" fill="white"/>
</clipPath>
</defs>
</svg>
