<svg width="20" height="20" viewBox="0 0 20 20" fill="none" xmlns="http://www.w3.org/2000/svg">
<g clip-path="url(#clip0_37_2)">
<path d="M18.3846 2.84083C17.3373 1.79355 15.9508 1.22116 14.4711 1.22116C12.9913 1.22116 11.6006 1.79779 10.5533 2.84507L10.0064 3.39202L9.45096 2.83659C8.40368 1.78931 7.00873 1.20844 5.52898 1.20844C4.05347 1.20844 2.66276 1.78507 1.61972 2.82811C0.57245 3.87538 -0.00418624 5.26609 5.37345e-05 6.74584C5.37345e-05 8.22559 0.58093 9.61206 1.6282 10.6593L9.59088 18.622C9.70111 18.7322 9.84951 18.7916 9.99367 18.7916C10.1378 18.7916 10.2862 18.7365 10.3965 18.6262L18.3761 10.6763C19.4234 9.62902 20 8.23831 20 6.75856C20.0043 5.27881 19.4319 3.8881 18.3846 2.84083ZM17.5705 9.86646L9.99367 17.4136L2.4338 9.85374C1.60276 9.02271 1.14485 7.92031 1.14485 6.74584C1.14485 5.57137 1.59852 4.46898 2.42956 3.64218C3.25635 2.81539 4.35875 2.35747 5.52898 2.35747C6.70345 2.35747 7.81009 2.81539 8.64112 3.64642L9.59936 4.60465C9.82407 4.82937 10.1845 4.82937 10.4092 4.60465L11.3589 3.6549C12.19 2.82387 13.2966 2.36595 14.4668 2.36595C15.6371 2.36595 16.7395 2.82387 17.5705 3.65066C18.4015 4.4817 18.8552 5.58409 18.8552 6.75856C18.8595 7.93303 18.4015 9.03543 17.5705 9.86646Z" fill="#FFB742"/>
</g>
<defs>
<clipPath id="clip0_37_2">
<rect width="20" height="20" fill="white"/>
</clipPath>
</defs>
</svg>
