<svg width="16" height="16" viewBox="0 0 16 16" fill="none" xmlns="http://www.w3.org/2000/svg">
<path d="M8 0C3.5875 0 0 2.87 0 6.4C0 9.72 5.2375 16 8 16C10.7625 16 16 9.72 16 6.4C16 2.87 12.4125 0 8 0ZM8 14.4C6.6125 14.24 2 9.21 2 6.4C2 3.75 4.6875 1.6 8 1.6C11.3125 1.6 14 3.75 14 6.4C14 9.21 9.3875 14.24 8 14.4Z" fill="#FFB742"/>
<path d="M8 8.00005C9.10457 8.00005 10 7.2837 10 6.40005C10 5.51639 9.10457 4.80005 8 4.80005C6.89543 4.80005 6 5.51639 6 6.40005C6 7.2837 6.89543 8.00005 8 8.00005Z" fill="#FFB742"/>
</svg>
