<svg width="200" height="200" viewBox="0 0 200 200" fill="none" xmlns="http://www.w3.org/2000/svg">
<path d="M37.48 99.9599C37.48 99.0799 37.44 98.3599 37.36 97.7199C37.28 97.0799 37.2 96.5599 37.04 96.0799C36.96 95.8799 36.88 95.6399 36.72 95.3999C36.56 95.1599 36.4 94.9199 36.16 94.7199C35.92 94.5199 35.64 94.3199 35.28 94.1999C34.96 94.0399 34.56 93.9999 34.12 93.9999C33.56 93.9999 33.04 94.1199 32.6 94.3999C32.12 94.6799 31.8 94.9999 31.56 95.4799C31 96.5199 30.72 98.0399 30.72 100.04C30.72 102.92 31.2 104.72 32.2 105.4C32.72 105.8 33.4 105.96 34.2 105.96C35.36 105.96 36.2 105.48 36.72 104.56C37.24 103.6 37.48 102.08 37.48 99.9599ZM41.36 99.8799C41.36 101.76 41.04 103.36 40.4 104.72C39.76 106.08 38.84 107.08 37.64 107.76C37.12 108.04 36.64 108.24 36.12 108.36C35.6 108.48 35 108.52 34.32 108.52C33.08 108.52 32 108.32 31.16 107.96C30.32 107.6 29.56 107 28.92 106.16C27.64 104.52 27 102.48 27 99.9999C27 98.1999 27.32 96.6399 28 95.2799C28.64 93.9199 29.56 92.9199 30.76 92.2399C31.24 91.9599 31.8 91.7599 32.4 91.6399C33 91.5199 33.6 91.4399 34.2 91.4399C35.28 91.4399 36.28 91.6399 37.16 92.0399C38.04 92.4399 38.8 92.9999 39.4 93.7199C40.04 94.4399 40.48 95.3199 40.84 96.3599C41.2 97.3999 41.36 98.5599 41.36 99.8799Z" fill="#00508D"/>
<path d="M51.52 96.5999C51.52 95.5199 51.12 94.8399 50.32 94.5599C50.12 94.4799 49.88 94.4399 49.56 94.3999C49.24 94.3599 48.88 94.3599 48.44 94.3599H47.24V98.7999H48.36C49.08 98.7999 49.6 98.7599 50 98.6799C50.36 98.5999 50.68 98.4399 50.88 98.2399C51.32 97.8799 51.52 97.3199 51.52 96.5999ZM52.08 108.28C51.92 108 51.8 107.76 51.68 107.56C51.56 107.36 51.44 107.16 51.32 106.96C51.2 106.76 51.08 106.56 50.96 106.32C50.84 106.08 50.72 105.84 50.56 105.56C50.16 104.8 49.8 104.2 49.52 103.68C49.24 103.2 49 102.8 48.8 102.48C48.6 102.16 48.4 101.96 48.28 101.8C48.12 101.64 48 101.56 47.84 101.48C47.68 101.4 47.48 101.36 47.32 101.32V108.24H44.04V91.6399H50.24C50.96 91.6399 51.64 91.7599 52.24 91.9999C52.84 92.2399 53.36 92.5599 53.8 92.9999C54.24 93.4399 54.56 93.9599 54.8 94.5599C55.04 95.1599 55.16 95.8399 55.16 96.5599C55.16 97.1999 55.08 97.7599 54.88 98.3199C54.68 98.8799 54.44 99.3599 54.08 99.7599C53.76 100.16 53.36 100.52 52.88 100.76C52.44 101 51.96 101.12 51.44 101.16C51.6 101.28 51.76 101.4 51.84 101.48C51.92 101.56 52.04 101.68 52.12 101.84C52.24 102 52.36 102.2 52.56 102.48C52.76 102.76 52.92 103.04 53.16 103.36C53.36 103.68 53.6 104.04 53.8 104.4C54.04 104.76 54.24 105.16 54.48 105.52C55 106.4 55.56 107.32 56.12 108.28H52.08Z" fill="#00508D"/>
<path d="M66.5599 94.3599H61.2799V98.1599H65.5199V100.88H61.2799V108.28H57.9199V91.6399H66.9599L66.5599 94.3599Z" fill="#00508D"/>
<path d="M83.64 108.28H73.4V106C73.64 105.76 73.92 105.48 74.28 105.16C74.64 104.8 74.96 104.44 75.36 104.08C75.72 103.72 76.08 103.32 76.44 102.96C76.8 102.6 77.12 102.24 77.4 101.96C77.92 101.36 78.36 100.84 78.72 100.36C79.08 99.8798 79.32 99.4398 79.52 99.0398C79.72 98.6398 79.84 98.2798 79.92 97.9598C80 97.6398 80.04 97.3198 80.04 97.0798C80.04 96.6798 80 96.3198 79.88 96.0398C79.76 95.7598 79.64 95.5598 79.44 95.3998C79.24 95.2398 79.04 95.1198 78.8 95.0398C78.56 94.9598 78.32 94.9198 78.04 94.9198C77.52 94.9198 77 95.0398 76.48 95.2798C75.96 95.5198 75.36 95.9198 74.68 96.4798L72.96 94.4398C73.84 93.6798 74.72 93.0798 75.68 92.6798C76.64 92.2798 77.72 92.0798 78.96 92.0798C79.68 92.0798 80.32 92.1998 80.88 92.3998C81.44 92.6398 81.96 92.9198 82.36 93.3198C82.76 93.7198 83.08 94.1998 83.28 94.7598C83.48 95.3198 83.6 95.9598 83.6 96.5998C83.6 97.4798 83.36 98.3598 82.84 99.2398C82.32 100.16 81.64 101.08 80.8 102C80.44 102.4 80 102.84 79.48 103.36C78.96 103.88 78.48 104.36 77.92 104.84C77.8 104.96 77.64 105.12 77.48 105.28C77.32 105.44 77.16 105.56 77.04 105.64C77.32 105.6 77.68 105.56 78.2 105.56C78.72 105.52 79.16 105.52 79.56 105.52H84.36L83.64 108.28Z" fill="#00508D"/>
<path d="M92.52 108.28V91.6399H102L101.56 94.3599H95.88V98.1999H100.64V100.96H95.92V105.4H102.2V108.28H92.52Z" fill="#00508D"/>
<path d="M116.24 102.84C116.24 103.24 116.24 103.56 116.24 103.8C116.24 104.04 116.24 104.28 116.2 104.44C116.2 104.6 116.16 104.76 116.12 104.92C116.08 105.08 116.04 105.24 115.96 105.4C115.84 105.72 115.68 106.08 115.4 106.44C115.12 106.8 114.76 107.16 114.32 107.44C113.88 107.76 113.32 108 112.64 108.2C111.96 108.4 111.2 108.48 110.32 108.48C109.04 108.48 107.96 108.28 107.04 107.92C106.12 107.56 105.44 107 105 106.24C104.84 106.04 104.76 105.84 104.64 105.6C104.56 105.4 104.48 105.16 104.44 104.92C104.4 104.68 104.36 104.4 104.32 104.12C104.28 103.84 104.28 103.48 104.28 103.08V91.52H107.68V102.44C107.68 102.96 107.72 103.36 107.76 103.68C107.8 104 107.88 104.24 107.96 104.44C108.36 105.2 109.12 105.6 110.24 105.6C110.96 105.6 111.56 105.44 112 105.08C112.44 104.72 112.68 104.28 112.76 103.64C112.8 103.48 112.8 103.28 112.8 103.12C112.8 102.92 112.8 102.64 112.8 102.16V91.52H116.2L116.24 102.84Z" fill="#00508D"/>
<path d="M127.12 96.5999C127.12 95.5199 126.72 94.8399 125.92 94.5599C125.72 94.4799 125.48 94.4399 125.16 94.3999C124.84 94.3599 124.48 94.3599 124.04 94.3599H122.84V98.7999H123.96C124.68 98.7999 125.2 98.7599 125.6 98.6799C125.96 98.5999 126.28 98.4399 126.48 98.2399C126.92 97.8799 127.12 97.3199 127.12 96.5999ZM127.68 108.28C127.52 108 127.4 107.76 127.28 107.56C127.16 107.36 127.04 107.16 126.92 106.96C126.8 106.76 126.68 106.56 126.56 106.32C126.44 106.08 126.32 105.84 126.16 105.56C125.76 104.8 125.4 104.2 125.12 103.68C124.84 103.2 124.6 102.8 124.4 102.48C124.2 102.16 124 101.96 123.88 101.8C123.72 101.64 123.6 101.56 123.44 101.48C123.28 101.4 123.08 101.36 122.92 101.32V108.24H119.64V91.6399H125.84C126.56 91.6399 127.24 91.7599 127.84 91.9999C128.44 92.2399 128.96 92.5599 129.4 92.9999C129.84 93.4399 130.16 93.9599 130.4 94.5599C130.64 95.1599 130.76 95.8399 130.76 96.5599C130.76 97.1999 130.68 97.7599 130.48 98.3199C130.28 98.8799 130.04 99.3599 129.68 99.7599C129.36 100.16 128.96 100.52 128.48 100.76C128.04 101 127.56 101.12 127.04 101.16C127.2 101.28 127.36 101.4 127.44 101.48C127.52 101.56 127.64 101.68 127.72 101.84C127.84 102 127.96 102.2 128.16 102.48C128.36 102.76 128.52 103.04 128.76 103.36C129 103.68 129.2 104.04 129.4 104.4C129.64 104.76 129.84 105.16 130.08 105.52C130.6 106.4 131.16 107.32 131.72 108.28H127.68Z" fill="#00508D"/>
<path d="M143.32 99.9599C143.32 99.0799 143.28 98.3599 143.2 97.7199C143.12 97.0799 143.04 96.5599 142.88 96.0799C142.8 95.8799 142.72 95.6399 142.56 95.3999C142.4 95.1599 142.24 94.9199 142 94.7199C141.76 94.5199 141.48 94.3199 141.12 94.1999C140.8 94.0399 140.4 93.9999 139.96 93.9999C139.4 93.9999 138.88 94.1199 138.44 94.3999C137.96 94.6799 137.64 94.9999 137.4 95.4799C136.84 96.5199 136.56 98.0399 136.56 100.04C136.56 102.92 137.04 104.72 138.04 105.4C138.56 105.8 139.24 105.96 140.04 105.96C141.2 105.96 142.04 105.48 142.56 104.56C143.04 103.6 143.32 102.08 143.32 99.9599ZM147.16 99.8799C147.16 101.76 146.84 103.36 146.2 104.72C145.56 106.08 144.64 107.08 143.44 107.76C142.92 108.04 142.44 108.24 141.92 108.36C141.4 108.48 140.8 108.52 140.12 108.52C138.88 108.52 137.8 108.32 136.96 107.96C136.12 107.6 135.36 107 134.72 106.16C133.44 104.52 132.8 102.48 132.8 99.9999C132.8 98.1999 133.12 96.6399 133.8 95.2799C134.44 93.9199 135.36 92.9199 136.56 92.2399C137.04 91.9599 137.6 91.7599 138.2 91.6399C138.8 91.5199 139.4 91.4399 140 91.4399C141.08 91.4399 142.08 91.6399 142.96 92.0399C143.84 92.4399 144.6 92.9999 145.2 93.7199C145.84 94.4399 146.28 95.3199 146.64 96.3599C147 97.3999 147.16 98.5599 147.16 99.8799Z" fill="#00508D"/>
<path d="M157.48 96.8399C157.48 96.0399 157.28 95.4399 156.88 94.9999C156.48 94.5599 155.92 94.3599 155.2 94.3599H153.08V99.4399H154.84C155.16 99.4399 155.44 99.4399 155.68 99.3999C155.92 99.3599 156.12 99.3199 156.28 99.2799C156.44 99.1999 156.6 99.1199 156.72 98.9999C156.84 98.8799 156.96 98.7599 157.08 98.5599C157.24 98.3199 157.32 98.0799 157.4 97.8399C157.48 97.5599 157.48 97.2399 157.48 96.8399ZM161.16 96.7599C161.16 97.8399 160.92 98.8399 160.4 99.6799C159.88 100.52 159.2 101.16 158.28 101.6C158.08 101.68 157.88 101.76 157.68 101.84C157.48 101.92 157.24 101.96 157 102C156.76 102.04 156.48 102.08 156.12 102.12C155.8 102.16 155.4 102.16 154.92 102.16H153.08V108.28H149.72V91.6799H154.08C154.8 91.6799 155.36 91.6799 155.88 91.7199C156.36 91.7599 156.8 91.7999 157.12 91.8799C157.48 91.9599 157.76 92.0399 158 92.1599C158.24 92.2799 158.48 92.3599 158.72 92.5199C159.52 92.9599 160.08 93.5199 160.52 94.2799C160.96 94.9599 161.16 95.7999 161.16 96.7599Z" fill="#00508D"/>
<path d="M163.32 108.28V91.6399H172.8L172.36 94.3599H166.68V98.1999H171.44V100.96H166.72V105.4H173V108.28H163.32Z" fill="#00508D"/>
</svg>
