<svg width="200" height="200" viewBox="0 0 200 200" fill="none" xmlns="http://www.w3.org/2000/svg">
<path d="M153.48 86.0398C153.52 86.6798 153.56 87.2798 153.56 87.9198C153.56 117.4 129.6 141.36 100.12 141.36C70.64 141.36 46.68 117.4 46.68 87.9198C46.68 87.2798 46.76 86.6798 46.76 86.0398H27V160.36H173V86.0398H153.48Z" fill="#004B95"/>
<path d="M51.8799 87.9199C51.8799 61.2799 73.5199 39.6399 100.16 39.6399C126.8 39.6399 148.44 61.2799 148.44 87.9199C148.44 114.56 126.8 136.2 100.16 136.2C73.5199 136.2 51.8799 114.56 51.8799 87.9199Z" fill="#004B95"/>
<path d="M100.24 44.1199L99.2801 47.1199H96.0801L98.6801 49.0799L97.6801 52.1999L100.24 50.2799L102.84 52.1999L101.84 49.0799L104.44 47.1199H101.2L100.24 44.1199Z" fill="#FFEC00"/>
<path d="M80.7601 49.4399L79.7601 52.4799H76.5601L79.2001 54.3999L78.1601 57.5199L80.7601 55.5999L83.3201 57.5199L82.3201 54.3999L84.9201 52.4799H81.6801L80.7601 49.4399Z" fill="#FFEC00"/>
<path d="M66.2401 63.3599L65.2801 66.3999H62.0801L64.6801 68.3599L63.6801 71.4399L66.2401 69.5599L68.8401 71.4399L67.8401 68.3599L70.4401 66.3999H67.2001L66.2401 63.3599Z" fill="#FFEC00"/>
<path d="M60.5201 83.76L59.5201 86.8H56.3201L58.9601 88.76L57.9201 91.84L60.5201 89.96L63.0801 91.84L62.0801 88.76L64.6801 86.8H61.4801L60.5201 83.76Z" fill="#FFEC00"/>
<path d="M66.68 103.04L65.72 106.04H62.48L65.12 108L64.08 111.12L66.68 109.2L69.28 111.12L68.24 108L70.84 106.04H67.64L66.68 103.04Z" fill="#FFEC00"/>
<path d="M80.0401 117.04L79.0401 120.04H75.8401L78.4401 122L77.4401 125.12L80.0401 123.2L82.6001 125.12L81.6001 122L84.2001 120.04H80.9601L80.0401 117.04Z" fill="#FFEC00"/>
<path d="M100.04 123.64L99.0801 126.68H95.8401L98.4801 128.64L97.4401 131.72L100.04 129.84L102.64 131.72L101.6 128.64L104.2 126.68H101L100.04 123.64Z" fill="#FFEC00"/>
<path d="M120.08 117.16L119.08 120.16H115.88L118.52 122.12L117.48 125.24L120.08 123.32L122.64 125.24L121.64 122.12L124.24 120.16H121L120.08 117.16Z" fill="#FFEC00"/>
<path d="M133.48 103.2L132.52 106.24H129.32L131.92 108.2L130.92 111.28L133.48 109.36L136.08 111.28L135.08 108.2L137.68 106.24H134.44L133.48 103.2Z" fill="#FFEC00"/>
<path d="M139.76 84L138.8 87H135.6L138.2 88.96L137.2 92.08L139.76 90.16L142.36 92.08L141.36 88.96L143.96 87H140.72L139.76 84Z" fill="#FFEC00"/>
<path d="M134.16 63.5598L133.16 66.5998H129.96L132.56 68.5598L131.56 71.6398L134.16 69.7198L136.72 71.6398L135.72 68.5598L138.32 66.5998H135.08L134.16 63.5598Z" fill="#FFEC00"/>
<path d="M119.72 49.5598L118.76 52.5598H115.52L118.16 54.5198L117.12 57.6398L119.72 55.7198L122.32 57.6398L121.28 54.5198L123.88 52.5598H120.68L119.72 49.5598Z" fill="#FFEC00"/>
<path d="M102.56 109.48C93.9601 109.48 86.6801 103.08 84.2001 94.2799H110.8L112.64 89.9199H83.4801C83.4001 89.1999 83.3601 88.4799 83.3601 87.7599C83.3601 87.0399 83.4001 86.2799 83.4801 85.5999H114.48L116.32 81.2399H84.2801C86.7201 72.4399 94.0001 66.0399 102.64 66.0399C108.56 66.0399 114.96 69.0399 119.48 73.7999L121.2 69.6799C116.08 64.7199 109.2 61.6399 102.64 61.6399C91.8801 61.6399 82.8401 69.9599 80.2801 81.2399H74.2401L72.4001 85.5999H79.6001C79.5601 86.3199 79.5201 87.0399 79.5201 87.7599C79.5201 88.4799 79.5601 89.2399 79.6001 89.9199H74.2001L72.3601 94.2799H80.2401C82.8001 105.56 91.8401 113.88 102.6 113.88C108.44 113.88 114.56 111.44 119.44 107.36V101.76C114.88 106.48 108.48 109.48 102.56 109.48Z" fill="#FFEC00"/>
<path d="M102.56 109.48C93.96 109.48 86.68 103.08 84.24 94.2799H110.8L112.64 89.8799H83.44C83.36 89.1599 83.36 88.4399 83.36 87.7199C83.36 86.9999 83.4 86.2399 83.44 85.5599H114.44L116.28 81.1599H84.2C86.64 72.3599 93.92 65.9599 102.52 65.9599C108.44 65.9599 114.84 68.9599 119.36 73.7199V73.7599L121.08 69.6399C115.96 64.6799 109.08 61.5999 102.52 61.5999C91.76 61.5999 82.68 69.9199 80.12 81.1999H74.08L72.24 85.5999H79.48C79.44 86.3199 79.4 87.0399 79.4 87.7999C79.4 88.5199 79.44 89.2799 79.48 89.9599H74.08L72.24 94.3599H80.16C82.72 105.64 91.76 113.96 102.56 113.96C108.4 113.96 114.52 111.52 119.4 107.44V101.8V101.76V101.72L119.36 101.76C114.88 106.44 108.48 109.48 102.56 109.48C108.48 109.48 114.88 106.48 119.4 101.76V107.36C114.52 111.4 108.4 113.84 102.56 113.84C91.8 113.84 82.76 105.52 80.2 94.2799H72.32L74.12 89.9599H79.52C79.48 89.2399 79.44 88.5199 79.44 87.7999C79.44 87.0799 79.48 86.3599 79.52 85.6399H72.32L74.12 81.3199H80.16C82.72 70.0799 91.76 61.7599 102.52 61.7599C109.08 61.7599 115.92 64.8399 121.08 69.7999L119.36 73.9199C114.84 69.1599 108.44 66.1599 102.52 66.1599C93.92 66.1599 86.6 72.5599 84.16 81.3599V81.3999H116.2L114.4 85.7199H83.4C83.32 86.4399 83.28 87.1599 83.28 87.9199C83.28 88.6399 83.32 89.3999 83.4 90.0799H112.56L110.76 94.3999H84.2V94.4399C86.68 103.12 93.96 109.48 102.56 109.48Z" fill="#FFEC00"/>
</svg>
