<svg width="200" height="200" viewBox="0 0 200 200" fill="none" xmlns="http://www.w3.org/2000/svg">
<g clip-path="url(#clip0_17_2)">
<path fill-rule="evenodd" clip-rule="evenodd" d="M86.8111 44.8069L125.995 40.4106C125.995 40.4106 105.544 82.2719 136.605 69.0821C136.604 69.0821 75.82 100.239 86.8111 44.8069Z" fill="#467BB8"/>
<path fill-rule="evenodd" clip-rule="evenodd" d="M110.227 85.0433C110.227 85.0433 62.8215 67.2664 105.353 57.2319C105.353 57.2319 30.9014 74.6259 79.9302 109.129L110.227 85.0433ZM8.82373 113.428H30.1356V118.686H16.8525V122.603H29.1811V127.572H16.8525V132.353H30.5185V137.895H8.82373V113.428ZM53.9336 137.895H47.0524V134.932C46.0013 136.174 44.9502 137.033 43.8992 137.512C42.8471 137.99 41.6051 138.277 40.0757 138.277C38.068 138.277 36.4441 137.704 35.2966 136.557C34.1501 135.411 33.5763 133.595 33.5763 131.205V119.64H41.0313V129.676C41.0313 130.822 41.2222 131.587 41.7005 132.065C42.0834 132.639 42.7526 132.829 43.5163 132.829C44.3764 132.829 45.1411 132.544 45.7149 131.874C46.2877 131.205 46.4786 130.059 46.4786 128.434V119.64H53.9336V137.895ZM57.6616 119.64H64.5429V122.603C65.2121 121.361 65.8814 120.404 66.645 119.928C67.3143 119.449 68.1744 119.259 69.2255 119.259C70.2766 119.259 71.5196 119.544 72.7616 120.213L70.5629 125.184C69.6073 124.801 68.9381 124.706 68.4598 124.706C67.5041 124.706 66.7394 125.087 66.1667 125.852C65.402 126.902 65.1146 128.91 65.1146 131.778V137.895H57.6596V119.64H57.6616ZM81.0767 125.184C81.746 124.418 82.7006 124.038 83.7527 124.038C84.7083 124.038 85.5684 124.418 86.3331 125.184C87.0024 125.948 87.2887 127.095 87.2887 128.72C87.2887 130.438 87.0024 131.681 86.3331 132.447C85.6639 133.211 84.7083 133.594 83.6572 133.594C82.6061 133.594 81.746 133.115 81.0767 132.352C80.4075 131.586 80.0246 130.438 80.0246 128.816C80.0246 127.191 80.4085 125.949 81.0767 125.184ZM76.2022 136.079C78.1134 137.512 80.5984 138.277 83.6572 138.277C87.0978 138.277 89.8692 137.416 91.7815 135.6C93.7881 133.785 94.7438 131.491 94.7438 128.72C94.7438 126.234 93.9791 124.132 92.3542 122.412C90.443 120.309 87.4797 119.259 83.6572 119.259C80.312 119.259 77.6361 120.118 75.6294 121.933C73.6217 123.749 72.6671 126.043 72.6671 128.816C72.6661 131.779 73.8126 134.263 76.2022 136.079ZM106.212 125.375C106.881 124.706 107.645 124.323 108.506 124.323C109.463 124.323 110.131 124.706 110.8 125.375C111.374 126.044 111.659 127.191 111.659 128.624C111.659 130.249 111.374 131.396 110.8 132.064C110.227 132.733 109.463 133.116 108.602 133.116C107.645 133.116 106.881 132.734 106.212 132.064C105.543 131.301 105.255 130.249 105.255 128.816C105.255 127.191 105.544 126.139 106.212 125.375ZM105.353 144.872V136.079C106.013 136.842 106.874 137.405 107.838 137.704C108.793 138.084 109.749 138.277 110.896 138.277C113.285 138.277 115.197 137.512 116.726 135.888C118.254 134.263 119.02 131.969 119.02 128.91C119.02 126.233 118.35 123.844 116.917 122.028C115.484 120.117 113.573 119.258 110.991 119.258C109.654 119.258 108.506 119.448 107.36 120.021C106.596 120.402 105.735 121.168 104.78 122.315V119.638H97.898V144.87H105.353V144.872ZM128.768 127.095C128.864 126.043 129.151 125.184 129.629 124.706C130.299 123.749 131.252 123.368 132.4 123.368C133.452 123.368 134.215 123.654 134.885 124.228C135.458 124.801 135.841 125.756 136.031 127.095H128.768ZM143.486 129.676C143.486 127.286 143.103 125.375 142.244 123.846C141.41 122.358 140.143 121.158 138.613 120.405C136.988 119.641 134.884 119.26 132.113 119.26C128.673 119.26 126.092 120.119 124.18 121.839C122.173 123.655 121.218 125.949 121.218 128.817C121.218 130.823 121.696 132.544 122.653 133.977C123.607 135.507 124.849 136.558 126.284 137.227C127.813 137.991 129.82 138.279 132.305 138.279C135.268 138.279 137.467 137.897 139.09 137.133C140.62 136.272 141.958 135.03 143.104 133.119L135.841 132.545C135.363 133.023 134.98 133.404 134.504 133.691C133.877 133.995 133.191 134.158 132.495 134.17C131.349 134.17 130.394 133.787 129.725 133.023C129.151 132.449 128.864 131.588 128.768 130.442H143.487V129.676H143.486ZM159.543 130.344C159.543 131.205 159.35 131.874 159.064 132.447C158.779 133.02 158.301 133.402 157.632 133.785C156.866 134.168 156.101 134.358 155.337 134.358C154.476 134.358 153.902 134.168 153.522 133.88C153.139 133.497 152.948 133.116 152.948 132.543C152.948 132.064 153.139 131.586 153.522 131.205C153.902 130.918 154.859 130.536 156.39 130.153C157.44 129.866 158.491 129.579 159.543 129.294V130.344ZM154.285 123.94C154.859 123.559 155.814 123.368 156.962 123.368C157.917 123.368 158.585 123.559 158.969 123.94C159.35 124.228 159.543 124.897 159.543 125.66C158.586 126.043 157.727 126.33 156.963 126.522C156.102 126.713 154.286 127.095 151.612 127.668C149.22 128.049 147.693 128.72 146.831 129.675C145.972 130.536 145.589 131.682 145.589 133.021C145.589 134.549 146.163 135.791 147.31 136.748C148.552 137.8 150.272 138.278 152.566 138.278C154.286 138.278 155.815 137.991 157.059 137.513C158.013 137.132 158.97 136.558 159.925 135.601C160.022 136.175 160.118 136.558 160.212 136.843C160.307 137.034 160.497 137.417 160.786 137.896H167.668C167.285 137.132 166.998 136.558 166.902 136.08C166.778 135.386 166.714 134.682 166.711 133.977V125.95C166.711 125.089 166.521 124.134 166.233 123.273C165.85 122.318 165.374 121.553 164.705 121.076C163.844 120.311 162.696 119.834 161.359 119.546C160.021 119.355 158.301 119.261 156.102 119.261C154.669 119.261 153.427 119.356 152.28 119.546C151.036 119.737 150.081 120.024 149.412 120.31C148.551 120.788 147.787 121.362 147.309 122.03C146.83 122.796 146.45 123.655 146.162 124.802L153.14 125.566C153.426 124.801 153.807 124.229 154.285 123.94ZM170.725 119.64H177.605V122.603C178.657 121.361 179.708 120.502 180.76 120.023C181.81 119.449 183.052 119.26 184.583 119.26C186.589 119.26 188.214 119.833 189.361 120.978C190.507 122.124 191.081 123.846 191.081 126.33V137.895H183.625V127.859C183.625 126.713 183.434 125.852 182.956 125.47C182.575 124.991 181.904 124.706 181.14 124.706C180.185 124.706 179.515 124.991 178.943 125.66C178.37 126.33 178.082 127.476 178.082 129.101V137.895H170.724V119.64H170.725ZM100.765 152.231H101.624C102.102 152.231 102.485 152.326 102.676 152.518C102.867 152.709 102.963 152.994 102.963 153.282C102.963 153.567 102.866 153.856 102.676 154.046C102.391 154.236 102.007 154.333 101.434 154.333H100.765V152.231ZM97.8015 159.589H100.765V156.151H102.39C103.536 156.151 104.396 155.958 104.969 155.385C105.543 154.909 105.828 154.143 105.828 153.188C105.828 152.327 105.543 151.564 105.065 151.085C104.491 150.607 103.727 150.322 102.675 150.322H97.8005V159.589H97.8015ZM109.175 156.054L110.228 152.804L111.28 156.054H109.175ZM112.329 159.589H115.389L111.85 150.32H108.697L105.161 159.589H108.123L108.602 158.061H111.85L112.329 159.589ZM119.116 152.231H119.975C120.548 152.231 120.836 152.326 121.027 152.518C121.312 152.709 121.41 152.994 121.41 153.282C121.41 153.567 121.217 153.856 121.027 154.046C120.837 154.235 120.453 154.333 119.88 154.333H119.117V152.231H119.116ZM116.248 159.589H119.116V156.151H120.74C121.886 156.151 122.747 155.958 123.32 155.385C123.894 154.909 124.179 154.143 124.179 153.188C124.179 152.327 123.988 151.564 123.415 151.085C122.937 150.607 122.078 150.322 121.026 150.322H116.248V159.589ZM125.614 150.32H133.451V152.326H128.48V153.76H133.068V155.671H128.48V157.487H133.546V159.589H125.614V150.32ZM137.941 152.231H139.185C139.757 152.231 140.14 152.326 140.332 152.518C140.523 152.614 140.617 152.899 140.617 153.187C140.614 153.364 140.546 153.533 140.426 153.664C140.382 153.752 140.313 153.826 140.229 153.876C140.144 153.927 140.047 153.953 139.948 153.951C139.565 154.047 139.279 154.142 139.184 154.142H137.94V152.231H137.941ZM137.941 159.589V155.862H138.229C138.42 155.862 138.707 155.958 138.898 156.055C139.089 156.151 139.281 156.436 139.472 156.819L141.002 159.589H144.251L142.818 156.914C142.818 156.819 142.625 156.629 142.435 156.341L141.957 155.862C141.861 155.767 141.576 155.671 141.193 155.482C141.671 155.384 142.052 155.289 142.245 155.194C142.626 154.909 143.009 154.62 143.2 154.237C143.393 153.857 143.487 153.474 143.487 152.9C143.487 152.326 143.392 151.848 143.104 151.467C142.819 150.989 142.435 150.703 141.958 150.606C141.48 150.415 140.811 150.321 139.857 150.321H134.981V159.59H137.941V159.589ZM148.36 150.32H151.132L152.182 155.482L153.617 150.32H156.39L157.821 155.576L158.874 150.32H161.548L159.543 159.589H156.675L154.955 153.76L153.329 159.589H150.462L148.36 150.32ZM162.41 150.32H170.246V152.326H165.275V153.76H169.864V155.671H165.275V157.487H170.342V159.589H162.41V150.32ZM171.775 150.32H179.613V152.326H174.737V153.76H179.23V155.671H174.737V157.487H179.708V159.589H171.775V150.32ZM181.141 150.32H184.104V153.856L187.162 150.32H190.986L187.545 153.856L191.177 159.589H187.545L185.634 155.862L184.104 157.392V159.589H181.141V150.32Z" fill="#467BB8"/>
</g>
<defs>
<clipPath id="clip0_17_2">
<rect width="200" height="200" fill="white"/>
</clipPath>
</defs>
</svg>
