<svg width="200" height="200" viewBox="0 0 200 200" fill="none" xmlns="http://www.w3.org/2000/svg">
<g clip-path="url(#clip0_20_21)">
<path fill-rule="evenodd" clip-rule="evenodd" d="M173.268 121.446H190.625L192.694 113.492H189.055L197.059 82.2689H188.904L188.181 83.4413L187.509 84.4384L186.833 85.2612L186.137 85.9097L185.389 86.4586L184.539 86.883L183.543 87.2316L182.446 87.5055L181.249 87.7805L179.178 95.6609H183.89L179.129 113.492H175.613L173.268 121.446ZM148.006 121.446H171.571V107.406H165.339V114.464H157.657V107.406H158.778V111.621H164.216V97.6064H158.778V101.596H157.657V95.0871H165.339V101.596H171.571V88.1302H148.006V95.0871H150.375V114.464H148.006V121.446V121.446ZM136.259 121.521H136.808V114.789H136.259V121.521ZM136.259 108.952H140.424L141.174 108.829L141.872 108.655L142.544 108.454L143.144 108.205L143.69 107.882L144.191 107.533L144.588 107.184L145.013 106.81L145.337 106.386L145.935 105.714L146.433 104.991L146.832 104.192L147.181 103.294L147.43 102.321L147.481 101.175L147.555 100.077L147.532 99.1545L147.555 98.1065V97.209L147.532 96.6601L147.481 95.912L147.381 95.1888L147.279 94.5901L147.006 93.6667L146.631 92.819L146.183 92.046L145.658 91.3477L145.06 90.749L144.388 90.2001L143.665 89.7011L142.866 89.203L142.417 88.953L141.868 88.7786L141.32 88.6043L140.697 88.4798L139.998 88.3553L139.226 88.2806L138.377 88.2308H136.256V94.8392H136.929L137.679 95.1878L137.976 95.4617L138.226 96.1849L138.402 97.3823V100.3L138.251 101.224L138.026 101.722L137.726 101.996L136.927 102.396H136.255V108.952H136.259V108.952ZM124.165 121.521H136.259V114.789H134.241V108.952H136.259V102.395H134.116V94.8381H136.259V88.2298H124.165V94.9128H126.409V114.789H124.165V121.521ZM104.166 119.127L105.336 119.626L106.484 119.977L107.781 120.124L109.177 120.151L110.474 120L111.597 119.677L112.618 119.226L113.617 118.752L114.563 118.229L115.437 117.657L116.284 117.058L117.058 116.36L117.806 115.635L118.505 114.888L119.152 114.066L119.751 113.192L120.325 112.294L120.823 111.321L121.297 110.349L121.721 109.303L122.069 108.204L122.394 107.033L122.594 105.787L122.718 104.415L122.743 103.091V101.721L122.643 100.399L122.445 99.1524L122.145 98.0059L121.796 96.9081L121.373 95.8352L120.923 94.9377L120.4 94.09L119.826 93.2672L119.202 92.4942L118.505 91.7451L117.755 91.0717L116.959 90.4481L117.906 89.726L118.779 88.9768L119.626 88.154L120.424 87.2814L121.199 86.3839L121.895 85.4615L122.544 84.4633L123.142 83.4662L123.691 82.4193L124.165 81.3465L124.589 80.2487L123.417 79.6261L122.196 79.1271L120.923 78.7276L119.626 78.4537L118.305 78.3043L116.983 78.2534L115.662 78.3292L114.34 78.5284L113.218 78.7276L112.12 79.0275L111.072 79.401L110.026 79.8752L109.027 80.4489L108.055 81.0725L107.108 81.7459L106.21 82.4442L105.336 83.2172L104.49 84.0151L103.517 83.1923L102.295 82.2191L101.421 81.6214L100.399 81.1721L99.4013 80.7478L98.3544 80.3244L97.2815 79.9499L96.0603 79.6759L94.8131 79.4757L93.4663 79.3263L92.0947 79.3512L90.7479 79.4508L89.4509 79.6002L88.2048 79.8254L87.0572 80.1491L85.9854 80.5236L84.9125 80.9221L83.8905 81.3714L82.992 81.9202L82.0944 82.494L81.1969 83.0429L79.5503 84.2392L92.5439 90.3993L91.5956 91.0717L90.7728 91.6963L89.9749 92.3936L89.2517 93.1178L88.5285 93.8649L87.88 94.6638L87.3072 95.5364L86.7584 96.4588L86.3091 97.5068L85.9096 98.5786L85.561 99.6764L85.3109 100.873L85.1117 102.145L85.0619 103.565V105.037L85.1117 106.186L85.2113 107.333L85.4116 108.453L85.6855 109.576L86.0352 110.675L86.4596 111.747L86.9576 112.792L87.5314 113.792L88.1539 114.764L88.8283 115.686L89.5764 116.56L90.3992 117.383L91.1971 118.106L92.0448 118.752L92.9424 119.328L93.8907 119.851L94.8878 120.274L96.0841 120.674L97.3313 120.899L98.5785 120.974L99.8506 120.899L101.073 120.674L102.268 120.274L103.418 119.751L104.166 119.127V119.127Z" fill="#345076"/>
<path fill-rule="evenodd" clip-rule="evenodd" d="M71.4706 121.52H71.8203V114.788H71.4706V121.52ZM71.4706 108.952V102.469H72.2187L72.6669 102.37L73.0664 102.144L73.3662 101.721L73.5406 101.147L73.6153 100.373V97.4556L73.5157 96.4087L73.3164 95.7104L73.0176 95.2113L72.5932 94.9623L72.1191 94.9125H71.4706V88.2295H73.5406L74.8873 88.3042L76.1096 88.5044L77.2074 88.8281L78.1547 89.1768L78.9526 89.6509L79.7256 90.1251L80.3243 90.674L80.8731 91.2727L81.3473 91.8963L81.697 92.7689L82.0207 93.6664L82.2957 94.54L82.4949 95.4375L82.6443 96.4347L82.719 97.4318L82.6941 98.4548L82.5686 99.4519L82.3693 100.399L82.0695 101.248L81.7209 102.047L81.2467 102.795L80.8223 103.418L80.3243 103.991L79.8003 104.516L79.2016 105.014L78.578 105.438L79.1518 105.761L79.6498 106.161L80.0991 106.659L80.4239 107.208L80.648 107.832L80.7725 108.455V113.069L80.7974 113.442L80.897 113.792L81.0962 114.116L81.3712 114.365L81.67 114.516L82.0186 114.639L82.3683 114.69L82.7169 114.714L83.465 114.788V121.52L78.4027 121.546L77.6297 121.471L76.7073 121.172L75.9343 120.723L75.2609 120.175L74.6871 119.502L74.2378 118.752L73.8892 117.88L73.6142 116.932V108.952H71.4706V108.952ZM59.4502 121.52H71.4706V114.788H69.3259V108.952H71.4706V102.469H69.3259V94.9125H71.4706V88.2295H59.4502V94.9125H61.7204V114.788H59.4502V121.52V121.52ZM35.3607 94.9125V112.943L35.3856 113.641L35.4105 114.338L35.4852 115.014L35.5848 115.635L35.7104 116.209L35.9096 116.758L36.1088 117.283L36.3588 117.755L36.6328 118.229L36.9316 118.679L37.2564 119.079L37.5801 119.475L37.9546 119.826L38.378 120.151L38.8023 120.448L39.2765 120.724L39.7497 120.973L40.2985 121.172L40.8723 121.322L41.4959 121.421L42.1693 121.496L42.8665 121.52H43.5897L44.3129 121.547H45.7842L46.5085 121.52L47.1808 121.471L47.8791 121.446H48.6023L49.3006 121.421L49.975 121.346L50.5976 121.246L51.1714 121.097L51.6953 120.899L52.2193 120.674L52.6924 120.424L53.1168 120.124L53.5401 119.8L53.9147 119.427L54.2633 119.052L54.5881 118.652L54.8869 118.205L55.137 117.755L55.4109 117.257L55.6101 116.734L55.7855 116.209L55.9349 115.611L56.0345 114.963L56.0843 114.289L56.1092 113.566L56.1341 112.867V94.9125H58.1792V88.2295H45.9596V94.9125H48.6531V112.42L48.6023 113.218L48.4778 113.866L48.2786 114.365L48.0296 114.738L47.7297 115.014L47.3811 115.212L47.0065 115.337L46.5832 115.386L46.1339 115.437L45.6846 115.461L45.2862 115.437L44.8618 115.386L44.4634 115.311L44.1137 115.188L43.7651 114.987L43.4652 114.714L43.2162 114.338L43.016 113.84L42.8915 113.192L42.8665 112.42V94.9125H44.9614V88.2295H32.5426L32.5177 94.9125H35.3607ZM2.94043 121.745H30.8711V105.112H23.4897V113.491H14.3632V105.112H15.685V110.099H22.1429V93.4661H15.685V98.2535H14.3632V90.4986H23.4897V98.2535H30.8711V82.2686H2.94043V90.4986H5.75954V113.491H2.94043V121.745Z" fill="#345076"/>
<path fill-rule="evenodd" clip-rule="evenodd" d="M101.895 87.6308L101.421 87.9057L100.947 88.1299L100.424 88.2544L99.5765 88.3042H98.7039L97.8562 88.2295L96.9836 88.1049L96.1359 87.9306L95.1875 87.6308L94.29 87.3319L93.3915 87.0082L92.5438 86.6347L91.7448 86.2103L90.922 85.8119L90.149 85.3377L89.127 84.5388L88.2544 83.9152L89.0274 83.8405L89.7506 83.7409L90.3752 83.6662L91.5217 83.5157L92.6195 83.441L93.6664 83.4908L94.7133 83.6413L95.7354 83.8405L96.7086 84.0905L97.6061 84.4143L98.4289 84.7888L99.1521 85.2381L99.7508 85.6874L100.2 86.0858L100.999 86.809L101.422 87.2085L101.895 87.6308V87.6308ZM104.938 91.7448L104.787 91.3464L104.688 90.922L104.637 90.4976L104.663 90.0732L105.011 89.2255L105.411 88.4276L105.885 87.6795L106.434 87.0062L106.981 86.3577L107.605 85.7341L108.254 85.1852L109.002 84.7121L109.801 84.2877L110.598 83.8644L111.423 83.4649L112.245 83.0654L113.143 82.7666L114.065 82.4429L115.062 82.2436L116.209 82.1938L117.782 82.1689L117.257 82.9679L116.708 83.7409L116.134 84.489L115.512 85.2122L114.839 85.8856L114.14 86.534L113.417 87.1327L112.669 87.7065L111.621 88.4048L110.573 89.0782L109.501 89.7018L108.378 90.2756L107.258 90.8244L106.109 91.2986L104.938 91.7448V91.7448ZM103.517 114.065L102.893 114.663L102.22 115.188L101.446 115.611L100.649 115.911L99.6512 116.109L98.5794 116.26L97.5065 116.284L96.4347 116.16L95.5112 115.86L94.6635 115.486L93.9403 115.014L93.268 114.465L92.5697 113.916L91.9959 113.267L91.4719 112.595L91.0227 111.821L90.4997 110.923L90.0505 110.028L89.652 109.08L89.3522 108.106L89.1031 107.109L88.9537 106.11L88.8531 105.089L88.8292 104.092L88.879 103.069L89.0035 101.972L89.2027 100.949L89.5016 100.027L89.8761 99.179L90.2497 98.3562L90.674 97.5583L91.1233 96.7853L91.6722 96.112L92.246 95.4635L92.8945 94.8897L93.5679 94.3418L94.3409 93.8926L95.1387 93.4184L95.9875 93.0449L96.885 92.745L97.8074 92.5707L98.7547 92.496L99.7031 92.5209L100.601 92.6703L101.499 92.8955L102.373 93.1943L103.219 93.5429L104.018 93.9922L104.79 94.4913L105.514 95.0401L106.186 94.5909L107.209 93.9922L108.157 93.518L109.154 93.2181L110.175 93.0687L111.223 93.0438L112.271 93.1683L113.268 93.4433L114.242 93.8417L115.115 94.3906L115.863 94.9385L116.461 95.562L116.986 96.2354L117.46 96.9835L117.833 97.8312L118.156 98.7536L118.357 99.7508L118.48 100.824L118.555 101.944L118.63 103.091L118.555 104.165L118.431 105.236L118.255 106.257L118.032 107.231L117.708 108.128L117.36 108.977L116.909 109.8L116.459 110.548L115.961 111.271L115.463 111.994L114.84 112.592L114.192 113.166L113.519 113.715L112.869 114.261L112.148 114.786L111.349 115.186L110.451 115.534L109.503 115.733L108.406 115.684L107.307 115.558L106.31 115.335L105.413 115.011L104.515 114.661L103.517 114.065V114.065Z" fill="#00ABD2"/>
</g>
<defs>
<clipPath id="clip0_20_21">
<rect width="200" height="200" fill="white"/>
</clipPath>
</defs>
</svg>
