<svg width="200" height="200" viewBox="0 0 200 200" fill="none" xmlns="http://www.w3.org/2000/svg">
<g clip-path="url(#clip0_20_27)">
<path fill-rule="evenodd" clip-rule="evenodd" d="M37.7577 97.2193C37.7577 102.133 36.4898 107.447 30.863 107.447C25.2372 107.447 23.9641 102.133 23.9641 97.2193C23.9641 92.38 25.2383 87.0728 30.863 87.0728C36.4898 87.0718 37.7577 92.38 37.7577 97.2193ZM8.82373 117.83H23.9641V113.311H24.1301C26.1057 115.926 28.4849 118.858 36.1764 118.858C47.8306 118.858 53.4563 107.366 53.4563 97.0595C53.4563 87.3872 49.7304 75.6542 35.9368 75.6542C31.2583 75.6542 27.0571 77.7201 24.678 81.2022H24.5244V61.2287H8.82373V117.83ZM84.7705 92.3053C84.6107 90.639 84.0567 89.2912 83.0284 88.4175C82.077 87.5449 80.7291 87.0718 79.0628 87.0718C73.0376 87.0718 72.1691 92.3053 72.1691 97.2982C72.1691 102.292 73.0365 107.446 79.0628 107.446C82.4702 107.446 84.8504 104.671 85.1679 101.418H100.154C98.6482 112.598 89.8422 118.857 78.7422 118.857C66.3752 118.857 56.4684 110.299 56.4684 97.2982C56.4684 84.2983 66.3752 75.6522 78.7422 75.6522C89.5289 75.6522 98.7167 80.9656 99.6754 92.3043H84.7705V92.3053V92.3053ZM117.985 92.6197C118.696 88.1799 121.395 85.724 126.077 85.724C130.116 85.724 132.969 88.8128 132.969 92.6197H117.985V92.6197ZM148.036 100.785C148.036 84.7725 140.981 75.6532 124.648 75.6532C111.644 75.6532 102.923 85.4064 102.923 97.3791C102.923 111.092 112.831 118.858 125.995 118.858C135.354 118.858 143.988 114.74 147.156 105.858H132.494C131.223 107.844 128.45 108.792 125.916 108.792C121.002 108.792 118.308 105.465 117.909 100.785H148.036V100.785ZM14.1579 134.122C14.1579 135.457 13.6381 136.782 12.0942 136.782C10.5378 136.782 9.92045 135.528 9.92045 134.17C9.92045 132.875 10.5057 131.572 12.0288 131.572C13.4918 131.573 14.1579 132.823 14.1579 134.122V134.122ZM8.82996 137.62H9.963V136.699H9.98997C10.4953 137.514 11.5059 137.786 12.2156 137.786C14.3177 137.786 15.3563 136.138 15.3563 134.197C15.3563 132.249 14.3073 130.575 12.1886 130.575C11.2403 130.575 10.3573 130.907 9.98997 131.668H9.963V128.105H8.82996V137.62ZM16.5164 130.729H17.582V132.184H17.6131C18.1557 131.082 18.9163 130.534 20.1427 130.574V131.774C18.3166 131.774 17.6515 132.811 17.6515 134.553V137.619H16.5164V130.729V130.729ZM21.4459 134.186C21.4459 132.502 22.4088 131.572 23.5916 131.572C24.7786 131.572 25.7425 132.501 25.7425 134.186C25.7425 135.846 24.7786 136.782 23.5916 136.782C22.4098 136.782 21.4459 135.846 21.4459 134.186ZM20.2485 134.186C20.2485 136.193 21.4086 137.786 23.5927 137.786C25.7788 137.786 26.942 136.193 26.942 134.186C26.942 132.158 25.7799 130.575 23.5927 130.575C21.4086 130.575 20.2485 132.158 20.2485 134.186ZM32.4028 135.224C32.4028 135.846 31.7854 136.782 30.2944 136.782C29.6023 136.782 28.9632 136.51 28.9632 135.771C28.9632 134.931 29.6013 134.665 30.3525 134.531C31.1089 134.399 31.9597 134.38 32.4017 134.069V135.224H32.4028V135.224ZM34.2393 136.714C34.1295 136.758 34.0122 136.781 33.8938 136.782C33.5317 136.782 33.5317 136.539 33.5317 136.012V132.466C33.5317 130.853 32.1901 130.575 30.9491 130.575C29.4166 130.575 28.0958 131.173 28.0262 132.876H29.1614C29.2143 131.864 29.9209 131.573 30.8796 131.573C31.6038 131.573 32.4131 131.73 32.4131 132.716C32.4131 133.573 31.3496 133.494 30.0973 133.728C28.9217 133.957 27.7658 134.293 27.7658 135.847C27.7658 137.221 28.7889 137.787 30.0443 137.787C31.002 137.787 31.8383 137.444 32.4723 136.715C32.4723 137.461 32.8448 137.787 33.4248 137.787C33.7869 137.787 34.037 137.716 34.2393 137.598V136.714V136.714ZM35.9845 134.233C35.9845 132.893 36.5064 131.573 38.0503 131.573C39.6108 131.573 40.222 132.823 40.222 134.187C40.222 135.486 39.6368 136.783 38.1136 136.783C36.6506 136.782 35.9845 135.528 35.9845 134.233V134.233ZM41.3145 128.105H40.1857V131.645H40.1525C39.6472 130.837 38.6366 130.575 37.9279 130.575C35.8247 130.575 34.7861 132.211 34.7861 134.158C34.7861 136.102 35.8351 137.786 37.9528 137.786C38.9011 137.786 39.78 137.443 40.1514 136.687H40.1846V137.619H41.3125V128.105H41.3145V128.105ZM47.6054 132.94C47.4301 132.077 46.8283 131.573 45.8975 131.573C44.2571 131.573 43.7518 132.865 43.7518 134.266C43.7518 135.529 44.3266 136.783 45.7647 136.783C46.8563 136.783 47.511 136.139 47.6542 135.103H48.8152C48.5652 136.783 47.511 137.787 45.7761 137.787C43.6719 137.787 42.5545 136.315 42.5545 134.266C42.5545 132.201 43.6201 130.575 45.8083 130.575C47.3626 130.575 48.6191 131.311 48.7727 132.94H47.6054ZM54.2127 135.224C54.2127 135.846 53.5954 136.782 52.1106 136.782C51.4133 136.782 50.7731 136.51 50.7731 135.771C50.7731 134.931 51.4133 134.665 52.1583 134.531C52.9189 134.399 53.7707 134.38 54.2117 134.069V135.224H54.2127V135.224ZM56.0492 136.714C55.9393 136.758 55.8221 136.781 55.7037 136.782C55.3416 136.782 55.3416 136.539 55.3416 136.012V132.466C55.3416 130.853 53.9959 130.575 52.7601 130.575C51.2266 130.575 49.913 131.173 49.8424 132.876H50.9713C51.0305 131.864 51.7319 131.573 52.6906 131.573C53.4148 131.573 54.2241 131.73 54.2241 132.716C54.2241 133.573 53.1606 133.494 51.9093 133.728C50.7327 133.957 49.5716 134.293 49.5716 135.847C49.5716 137.221 50.604 137.787 51.8502 137.787C52.8141 137.787 53.6483 137.444 54.2781 136.715C54.2781 137.461 54.6506 137.787 55.241 137.787C55.5989 137.787 55.8542 137.716 56.0503 137.598V136.714H56.0492V136.714ZM57.6616 135.447C57.7 136.464 58.5841 136.782 59.5148 136.782C60.2182 136.782 61.1801 136.625 61.1801 135.751C61.1801 134.877 60.0574 134.734 58.9285 134.478C57.8059 134.223 56.677 133.85 56.677 132.53C56.677 131.144 58.0507 130.574 59.2491 130.574C60.765 130.574 61.9738 131.059 62.0693 132.737H60.9404C60.8615 131.853 60.0834 131.572 59.3394 131.572C58.6577 131.572 57.8743 131.758 57.8743 132.449C57.8743 133.264 59.0717 133.402 60.1269 133.653C61.26 133.902 62.3785 134.275 62.3785 135.607C62.3785 137.246 60.8449 137.786 59.4452 137.786C57.9013 137.786 56.5919 137.152 56.5276 135.447H57.6616V135.447ZM65.0669 130.729H66.4417V131.73H65.0669V136.012C65.0669 136.527 65.2163 136.625 65.9197 136.625H66.4417V137.62H65.5742C64.4018 137.62 63.9338 137.384 63.9338 136.114V131.73H62.7634V130.729H63.9338V128.676H65.0669V130.729V130.729ZM68.7627 130.729V137.62H67.6276V130.729H68.7627V130.729ZM68.7627 128.105V129.489H67.6276V128.105H68.7627ZM70.3855 130.729H71.449V131.822H71.476C71.9543 130.977 72.7273 130.575 73.712 130.575C75.5278 130.575 76.086 131.615 76.086 133.088V137.62H74.9519V132.961C74.9519 132.126 74.4196 131.573 73.5512 131.573C72.1826 131.573 71.5175 132.493 71.5175 133.727V137.62H70.3834V130.729H70.3855V130.729ZM80.4324 136.699C78.9414 136.699 78.488 135.315 78.488 134.079C78.488 132.764 79.0701 131.573 80.5268 131.573C81.9483 131.573 82.4816 132.823 82.4816 134.043C82.4816 135.33 81.9213 136.699 80.4324 136.699V136.699ZM83.6043 130.729H82.5345V131.716H82.5242C82.1133 130.964 81.3361 130.574 80.4687 130.574C78.0895 130.574 77.2906 132.583 77.2906 134.21C77.2906 136.09 78.3137 137.697 80.3629 137.697C81.2303 137.697 82.1403 137.288 82.5128 136.453H82.5345V136.9C82.5345 138.443 81.9493 139.514 80.4687 139.514C79.7237 139.514 78.7391 139.223 78.6861 138.392H77.551C77.6206 139.897 79.1116 140.42 80.4044 140.42C82.576 140.42 83.6032 139.275 83.6032 137.033V130.729H83.6043V130.729ZM93.4208 132.94C93.2517 132.077 92.6489 131.573 91.713 131.573C90.0788 131.573 89.5735 132.865 89.5735 134.266C89.5735 135.529 90.1483 136.783 91.5843 136.783C92.6769 136.783 93.3306 136.139 93.4748 135.103H94.6358C94.3848 136.783 93.3306 137.787 91.5947 137.787C89.4926 137.787 88.374 136.315 88.374 134.266C88.374 132.201 89.4396 130.575 91.6279 130.575C93.1832 130.575 94.4377 131.311 94.5933 132.94H93.4208V132.94ZM96.5938 133.514C96.6737 132.466 97.3771 131.573 98.5631 131.573C99.6868 131.573 100.496 132.434 100.555 133.514H96.5938ZM100.521 135.437C100.319 136.326 99.6702 136.782 98.7384 136.782C97.2267 136.782 96.5512 135.713 96.5927 134.514H101.747C101.816 132.849 101.071 130.574 98.6274 130.574C96.7536 130.574 95.3902 132.092 95.3902 134.157C95.4597 136.26 96.4962 137.785 98.6949 137.785C100.245 137.785 101.332 136.951 101.64 135.435H100.521V135.437ZM102.789 130.729H103.849V131.822H103.879C104.353 130.977 105.131 130.575 106.116 130.575C107.927 130.575 108.491 131.615 108.491 133.088V137.62H107.351V132.961C107.351 132.126 106.822 131.573 105.955 131.573C104.587 131.573 103.916 132.493 103.916 133.727V137.62H102.787V130.729H102.789V130.729ZM111.638 130.729H113.005V131.73H111.638V136.012C111.638 136.527 111.782 136.625 112.491 136.625H113.005V137.62H112.138C110.96 137.62 110.505 137.384 110.505 136.114V131.73H109.327V130.729H110.505V128.676H111.638V130.729V130.729ZM114.955 133.514C115.034 132.466 115.737 131.573 116.924 131.573C118.041 131.573 118.855 132.434 118.908 133.514H114.955ZM118.878 135.437C118.682 136.326 118.031 136.782 117.101 136.782C115.593 136.782 114.912 135.713 114.955 134.514H120.108C120.172 132.849 119.432 130.574 116.994 130.574C115.115 130.574 113.751 132.092 113.751 134.157C113.82 136.26 114.853 137.785 117.059 137.785C118.601 137.785 119.693 136.951 120.008 135.435H118.878V135.437V135.437ZM121.104 130.729H122.173V132.184H122.194C122.749 131.082 123.506 130.534 124.735 130.574V131.774C122.903 131.774 122.243 132.811 122.243 134.553V137.619H121.104V130.729V130.729ZM129.849 133.514C129.922 132.466 130.625 131.573 131.819 131.573C132.935 131.573 133.752 132.434 133.798 133.514H129.849ZM133.778 135.437C133.575 136.326 132.923 136.782 131.99 136.782C130.484 136.782 129.807 135.713 129.85 134.514H135.004C135.072 132.849 134.321 130.574 131.885 130.574C130.01 130.574 128.653 132.092 128.653 134.157C128.717 136.26 129.754 137.785 131.952 137.785C133.498 137.785 134.589 136.951 134.897 135.435H133.778V135.437V135.437ZM141.741 137.62H140.683V136.527H140.65C140.176 137.384 139.4 137.786 138.409 137.786C136.6 137.786 136.041 136.74 136.041 135.266V130.729H137.174V135.394C137.174 136.235 137.707 136.782 138.574 136.782C139.944 136.782 140.613 135.862 140.613 134.622V130.729H141.742V137.62H141.741ZM143.282 130.729H144.341V132.184H144.365C144.914 131.082 145.67 130.534 146.9 130.574V131.774C145.08 131.774 144.408 132.811 144.408 134.553V137.619H143.281V130.729H143.282V130.729ZM148.21 134.186C148.21 132.502 149.169 131.572 150.35 131.572C151.538 131.572 152.496 132.501 152.496 134.186C152.496 135.846 151.537 136.782 150.35 136.782C149.169 136.782 148.21 135.846 148.21 134.186ZM147.014 134.186C147.014 136.193 148.167 137.786 150.35 137.786C152.538 137.786 153.703 136.193 153.703 134.186C153.703 132.158 152.538 130.575 150.35 130.575C148.168 130.575 147.014 132.158 147.014 134.186ZM160.268 134.122C160.268 135.457 159.747 136.782 158.197 136.782C156.643 136.782 156.031 135.528 156.031 134.17C156.031 132.875 156.616 131.572 158.134 131.572C159.597 131.573 160.268 132.823 160.268 134.122V134.122ZM154.938 140.26H156.067V136.699H156.095C156.599 137.514 157.617 137.786 158.324 137.786C160.427 137.786 161.464 136.138 161.464 134.197C161.464 132.249 160.41 130.575 158.292 130.575C157.344 130.575 156.466 130.907 156.094 131.668H156.066V130.73H154.937V140.26H154.938ZM163.488 133.514C163.573 132.466 164.276 131.573 165.463 131.573C166.582 131.573 167.394 132.434 167.449 133.514H163.488V133.514ZM167.418 135.437C167.222 136.326 166.573 136.782 165.641 136.782C164.133 136.782 163.452 135.713 163.489 134.514H168.649C168.713 132.849 167.972 130.574 165.528 130.574C163.655 130.574 162.291 132.092 162.291 134.157C162.36 136.26 163.399 137.785 165.599 137.785C167.147 137.785 168.234 136.951 168.542 135.435H167.418V135.437ZM155.722 68.0571L155.654 67.9927L155.59 68.0571L147.978 75.6688L148.046 75.7383C154.178 81.5145 157.559 89.2548 157.559 97.5285C157.559 105.716 154.242 113.396 148.227 119.152L148.158 119.22L155.834 126.896L155.898 126.828C163.973 119.024 168.419 108.615 168.419 97.5275C168.418 86.3538 163.91 75.8877 155.722 68.0571V68.0571ZM155.83 124.22C154.376 122.777 152.252 120.644 150.819 119.211C156.392 113.266 159.447 105.635 159.447 97.5285C159.447 89.341 156.335 81.6473 150.642 75.6688C152.091 74.2213 154.264 72.0549 155.654 70.6603C162.679 77.9794 166.528 87.4557 166.528 97.5285C166.528 107.515 162.745 116.926 155.83 124.22ZM178.821 60.2627L178.317 59.5811L177.698 60.1621L169.4 67.9927L169.77 68.525C175.807 77.085 178.995 87.1153 178.995 97.5285C178.995 107.855 175.857 117.816 169.921 126.328L169.548 126.861L178.465 135.271L178.965 134.584C186.956 123.736 191.178 110.922 191.178 97.5285C191.177 84.0441 186.907 71.1553 178.821 60.2627V60.2627ZM178.192 132.413C176.129 130.467 174.063 128.524 171.995 126.583C177.799 117.932 180.885 107.919 180.885 97.5285C180.885 87.0562 177.744 76.9688 171.851 68.2635C173.343 66.8586 176.796 63.6069 178.042 62.4292C185.4 72.7677 189.287 84.8731 189.287 97.5275C189.288 110.092 185.447 122.122 178.192 132.413Z" fill="#4A4C4D"/>
</g>
<defs>
<clipPath id="clip0_20_27">
<rect width="200" height="200" fill="white"/>
</clipPath>
</defs>
</svg>
