<svg width="40" height="40" viewBox="0 0 40 40" fill="none" xmlns="http://www.w3.org/2000/svg">
<path d="M10.3906 34.375C9.91094 34.3741 9.43976 34.2484 9.02343 34.0101C8.08593 33.4789 7.50311 32.4476 7.50311 31.3281V8.67186C7.50311 7.5492 8.08593 6.52108 9.02343 5.98983C9.44968 5.74486 9.93391 5.61888 10.4255 5.62506C10.9171 5.63125 11.398 5.76937 11.818 6.02499L31.1812 17.6156C31.5848 17.8686 31.9175 18.22 32.1481 18.6368C32.3787 19.0536 32.4996 19.5221 32.4996 19.9984C32.4996 20.4747 32.3787 20.9433 32.1481 21.36C31.9175 21.7768 31.5848 22.1282 31.1812 22.3812L11.8148 33.975C11.3851 34.2348 10.8928 34.3731 10.3906 34.375V34.375Z" fill="white"/>
</svg>
