<svg width="12" height="12" viewBox="0 0 12 12" fill="none" xmlns="http://www.w3.org/2000/svg">
<g clip-path="url(#clip0_13_2)">
<path d="M6.57944 0.622226L7.93289 3.36465C8.027 3.55539 8.20898 3.68756 8.41949 3.7181L11.446 4.1579C11.9762 4.23499 12.1877 4.88631 11.8042 5.26002L9.61424 7.39469C9.46205 7.54313 9.39246 7.75714 9.42851 7.96666L9.9454 10.9809C10.036 11.5088 9.48182 11.9113 9.00773 11.6623L6.30085 10.2392C6.11261 10.1404 5.88758 10.1404 5.69934 10.2392L2.99246 11.6623C2.51837 11.9116 1.96417 11.5088 2.05479 10.9809L2.57168 7.96666C2.60773 7.75714 2.53814 7.54313 2.38595 7.39469L0.195965 5.26002C-0.187515 4.88606 0.0239996 4.23474 0.554162 4.1579L3.5807 3.7181C3.79121 3.68756 3.97319 3.55539 4.0673 3.36465L5.42075 0.622226C5.65754 0.141875 6.3424 0.141875 6.57944 0.622226Z" fill="#FFB742"/>
</g>
<defs>
<clipPath id="clip0_13_2">
<rect width="12" height="12" fill="white"/>
</clipPath>
</defs>
</svg>
