<svg width="20" height="20" viewBox="0 0 20 20" fill="none" xmlns="http://www.w3.org/2000/svg">
<g clip-path="url(#clip0_32_20)">
<path d="M19.5467 3.70246C19.2325 3.84181 18.9095 3.95942 18.5794 4.05491C18.9702 3.61297 19.2681 3.09297 19.45 2.52394C19.4908 2.39639 19.4485 2.25678 19.3437 2.17336C19.239 2.08987 19.0935 2.07987 18.9782 2.1482C18.2772 2.56394 17.521 2.86271 16.728 3.03742C15.9292 2.25691 14.8443 1.81271 13.7228 1.81271C11.3554 1.81271 9.42929 3.73871 9.42929 6.10607C9.42929 6.29252 9.4411 6.47794 9.46445 6.66078C6.52671 6.40284 3.79555 4.95891 1.92007 2.65833C1.85323 2.57633 1.75026 2.53213 1.64484 2.54058C1.53936 2.54884 1.44458 2.60833 1.39129 2.69975C1.01091 3.35246 0.809808 4.09897 0.809808 4.85852C0.809808 5.89304 1.17916 6.87459 1.83161 7.64155C1.63323 7.57284 1.44071 7.48697 1.25697 7.38497C1.15832 7.33007 1.03794 7.33091 0.939937 7.3871C0.841873 7.44329 0.780389 7.54665 0.777808 7.65962C0.777357 7.67865 0.777357 7.69768 0.777357 7.71697C0.777357 9.26117 1.60845 10.6514 2.8791 11.4092C2.76994 11.3983 2.66084 11.3825 2.55245 11.3617C2.44071 11.3404 2.32581 11.3796 2.25045 11.4648C2.17497 11.5499 2.15 11.6687 2.18478 11.777C2.6551 13.2454 3.866 14.3255 5.32987 14.6548C4.11574 15.4152 2.72729 15.8136 1.26974 15.8136C0.965615 15.8136 0.659744 15.7957 0.360389 15.7603C0.211679 15.7426 0.0694858 15.8304 0.0188406 15.9718C-0.0318045 16.1133 0.0218729 16.271 0.148389 16.3521C2.02084 17.5527 4.18594 18.1873 6.40949 18.1873C10.7807 18.1873 13.5152 16.126 15.0394 14.3968C16.9401 12.2406 18.0301 9.38659 18.0301 6.56665C18.0301 6.44884 18.0283 6.32988 18.0247 6.21129C18.7746 5.64633 19.4202 4.96258 19.9455 4.17671C20.0254 4.05736 20.0167 3.89962 19.9243 3.78975C19.8319 3.67981 19.6781 3.64426 19.5467 3.70246Z" fill="#FFB742"/>
</g>
<defs>
<clipPath id="clip0_32_20">
<rect width="20" height="20" fill="white"/>
</clipPath>
</defs>
</svg>
