<svg width="20" height="20" viewBox="0 0 20 20" fill="none" xmlns="http://www.w3.org/2000/svg">
<path d="M19.2205 4.17064C18.4985 3.31245 17.1656 2.96239 14.6201 2.96239H5.37974C2.77594 2.96239 1.42045 3.33503 0.701226 4.24871C0 5.13955 0 6.45213 0 8.26877V11.7313C0 15.2507 0.832 17.0376 5.37974 17.0376H14.6201C16.8276 17.0376 18.0508 16.7287 18.8422 15.9714C19.6537 15.1947 20 13.9266 20 11.7313V8.26877C20 6.35297 19.9457 5.03264 19.2205 4.17064ZM12.8401 10.4781L8.64406 12.671C8.55026 12.7201 8.44768 12.7444 8.34523 12.7444C8.22923 12.7444 8.11348 12.7132 8.01097 12.6511C7.81794 12.5341 7.70006 12.3249 7.70006 12.0992V7.72735C7.70006 7.50206 7.81761 7.29303 8.01026 7.176C8.20297 7.05897 8.44265 7.05097 8.64258 7.15484L12.8386 9.33368C13.0521 9.44452 13.1861 9.6649 13.1865 9.90535C13.1867 10.146 13.0532 10.3667 12.8401 10.4781Z" fill="#FFB742"/>
</svg>
