<svg width="14" height="14" viewBox="0 0 14 14" fill="none" xmlns="http://www.w3.org/2000/svg">
<path d="M13.6664 13.5525L9.73889 9.46796C10.7407 8.46328 11.3613 7.07824 11.3613 5.55073C11.3613 2.4899 8.87139 0 5.81056 0C2.74973 0 0.259827 2.4899 0.259827 5.55073C0.259827 8.61156 2.74973 11.1015 5.81056 11.1015C7.1541 11.1015 8.38715 10.6212 9.34822 9.82426L13.2853 13.9189C13.3371 13.973 13.4063 14 13.4759 14C13.5419 14 13.6077 13.9754 13.659 13.9263C13.7642 13.825 13.7674 13.6577 13.6664 13.5525ZM5.81056 10.5728C3.04127 10.5728 0.788468 8.32002 0.788468 5.55073C0.788468 2.78144 3.04127 0.528641 5.81056 0.528641C8.57984 0.528641 10.8326 2.78144 10.8326 5.55073C10.8326 8.32002 8.57958 10.5728 5.81056 10.5728Z" fill="white"/>
</svg>
