<svg width="38" height="38" viewBox="0 0 38 38" fill="none" xmlns="http://www.w3.org/2000/svg">
<path d="M36.696 21.4918C34.9596 19.7554 32.1344 19.7554 30.3992 21.4906L22.2497 29.6219C22.0766 29.7947 21.949 30.0075 21.878 30.2414L20.1031 36.0841C19.9457 36.6022 20.0831 37.1646 20.4609 37.5522C20.7441 37.8424 21.1289 38.0001 21.5237 38.0001C21.6556 38.0001 21.789 37.9825 21.9198 37.9459L27.9112 36.2864C28.1576 36.218 28.3823 36.0873 28.5635 35.9067L36.696 27.7896C38.432 26.053 38.432 23.2281 36.696 21.4918ZM26.7425 33.5296L23.7283 34.3646L24.6105 31.4605L30.109 25.9739L32.2089 28.0734L26.7425 33.5296ZM34.5975 25.6892L34.3099 25.9762L32.2106 23.8769L32.4974 23.5907C33.076 23.0121 34.0177 23.0121 34.5967 23.5907C35.1753 24.1697 35.1753 25.1114 34.5975 25.6892ZM16.9961 36.5155C16.9961 37.3354 16.3316 37.9999 15.5117 37.9999H5.9375C2.66376 37.9999 0 35.3364 0 32.0624V5.93748C0 2.66346 2.66376 0 5.9375 0H24.1872C27.4612 0 30.1247 2.66346 30.1247 5.93748V17.3671C30.1247 18.187 29.4602 18.8515 28.6403 18.8515C27.8204 18.8515 27.1559 18.187 27.1559 17.3671V5.93748C27.1559 4.30061 25.8241 2.96874 24.1872 2.96874H5.9375C4.30063 2.96874 2.96875 4.30061 2.96875 5.93748V32.0624C2.96875 33.6992 4.30063 35.0311 5.9375 35.0311H15.5117C16.3316 35.0311 16.9961 35.6956 16.9961 36.5155ZM24.1953 11.0586C24.1953 11.8784 23.5308 12.5429 22.7109 12.5429H18.332C17.5121 12.5429 16.8477 11.8784 16.8477 11.0586C16.8477 10.2387 17.5121 9.57418 18.332 9.57418H22.7109C23.5308 9.57418 24.1953 10.2387 24.1953 11.0586ZM15.2462 7.99617L11.7816 12.1892C11.33 12.7462 10.6614 13.0923 9.9456 13.1401C9.88878 13.1439 9.83167 13.1459 9.77484 13.1459C9.11441 13.1459 8.47195 12.8911 7.99098 12.433C7.97736 12.4203 7.96402 12.4069 7.95068 12.3933L6.35846 10.7582C5.78645 10.1708 5.79921 9.23121 6.38629 8.65921C6.97366 8.0872 7.91328 8.09967 8.48529 8.68704L9.75078 9.98644L12.9573 6.10534C13.4794 5.47332 14.4153 5.38432 15.047 5.90646C15.679 6.42859 15.768 7.36415 15.2462 7.99617ZM22.7109 21.6718H18.332C17.5121 21.6718 16.8477 21.0073 16.8477 20.1874C16.8477 19.3675 17.5121 18.7031 18.332 18.7031H22.7109C23.5308 18.7031 24.1953 19.3675 24.1953 20.1874C24.1953 21.0073 23.5308 21.6718 22.7109 21.6718ZM15.2462 17.1158L11.7816 21.3091C11.33 21.8657 10.6614 22.2122 9.9456 22.2597C9.88878 22.2635 9.83167 22.2655 9.77484 22.2655C9.11412 22.2655 8.47195 22.0107 7.99069 21.5526C7.97823 21.5407 7.96576 21.5286 7.95358 21.5161L6.36136 19.89C5.7879 19.3043 5.79776 18.3644 6.38339 17.791C6.96902 17.2172 7.90894 17.2271 8.48239 17.813L9.74991 19.1072L12.9573 15.2249C13.4794 14.5929 14.4153 14.5042 15.047 15.026C15.679 15.5482 15.768 16.4837 15.2462 17.1158ZM15.2462 26.0962L11.7816 30.2895C11.33 30.8462 10.6614 31.1926 9.9456 31.2402C9.88878 31.2439 9.83167 31.246 9.77484 31.246C9.11412 31.246 8.47195 30.9911 7.99069 30.5331C7.97823 30.5212 7.96576 30.509 7.95358 30.4965L6.36136 28.8704C5.7879 28.2848 5.79776 27.3449 6.38339 26.7714C6.96902 26.1977 7.90894 26.2075 8.48239 26.7934L9.74991 28.0876L12.9573 24.2054C13.4794 23.5733 14.4153 23.4846 15.047 24.0065C15.679 24.5286 15.768 25.4642 15.2462 26.0962Z" fill="#6D7878"/>
</svg>
