<svg width="38" height="38" viewBox="0 0 38 38" fill="none" xmlns="http://www.w3.org/2000/svg">
<g clip-path="url(#clip0_3231_9485)">
<mask id="mask0_3231_9485" style="mask-type:luminance" maskUnits="userSpaceOnUse" x="0" y="0" width="38" height="38">
<path d="M38 0H0V38H38V0Z" fill="white"/>
<path d="M24.153 8.59861C23.8632 8.88836 23.3933 8.88836 23.1034 8.59861C22.8135 8.30878 22.8135 7.83883 23.1034 7.54893C23.3933 7.25911 23.8632 7.25911 24.153 7.54893C24.4429 7.83883 24.4429 8.30878 24.153 8.59861Z" fill="white"/>
</mask>
<g mask="url(#mask0_3231_9485)">
<mask id="mask1_3231_9485" style="mask-type:luminance" maskUnits="userSpaceOnUse" x="0" y="0" width="38" height="38">
<path d="M0 1.14441e-05H38V38H0V1.14441e-05Z" fill="white"/>
</mask>
<g mask="url(#mask1_3231_9485)">
<path d="M18.3129 13.5877C19.7174 13.9902 21.0423 14.7446 22.1486 15.8509C25.6267 19.329 25.6267 24.9681 22.1486 28.4462L15.9458 34.6489C12.4678 38.1271 6.82864 38.1271 3.35053 34.6489C-0.127585 31.1709 -0.127585 25.5317 3.35053 22.0536L9.55328 15.8509C10.7003 14.7038 12.0825 13.9351 13.5446 13.5446" stroke="white" stroke-width="1.52171" stroke-miterlimit="10" stroke-linecap="round" stroke-linejoin="round"/>
<path d="M24.4124 19.6868C24.7286 19.5002 25.0265 19.2712 25.2979 18.9999L31.5007 12.7972C33.237 11.0608 33.237 8.23586 31.5007 6.49943C29.9405 4.93943 27.5018 4.78105 25.7633 6.02429" stroke="white" stroke-width="1.52171" stroke-miterlimit="10" stroke-linecap="round" stroke-linejoin="round"/>
<path d="M21.5292 10.1731L19.0002 12.7022C17.2637 14.4385 17.2637 17.2634 19.0002 18.9999C20.7365 20.7362 20.7365 23.5612 19.0002 25.2975L12.7975 31.5002C11.0611 33.2366 8.23614 33.2366 6.49971 31.5002C4.76344 29.7639 4.76344 26.9389 6.49971 25.2025L12.7025 18.9999C12.9739 18.7284 13.2718 18.4996 13.5881 18.313" stroke="white" stroke-width="1.52171" stroke-miterlimit="10" stroke-linecap="round" stroke-linejoin="round"/>
<path d="M19.687 24.412C18.2825 24.0095 16.9576 23.255 15.8512 22.1488C12.3732 18.6707 12.3732 13.0316 15.8512 9.55344L22.054 3.35076C25.5321 -0.127431 31.1712 -0.127431 34.6493 3.35076C38.1274 6.82879 38.1274 12.4679 34.6493 15.946L28.4466 22.1488C27.2995 23.2959 25.9173 24.0646 24.4552 24.4551" stroke="white" stroke-width="1.52171" stroke-miterlimit="10" stroke-linecap="round" stroke-linejoin="round"/>
<path d="M24.1533 8.59861C23.8635 8.88836 23.3935 8.88836 23.1036 8.59861C22.8138 8.30878 22.8138 7.83883 23.1036 7.54893C23.3935 7.25911 23.8635 7.25911 24.1533 7.54893C24.4431 7.83883 24.4431 8.30878 24.1533 8.59861Z" fill="#FAF7F5"/>
<path d="M6.40503 6.40459L9.55391 9.55347" stroke="white" stroke-width="1.52171" stroke-miterlimit="10" stroke-linecap="round" stroke-linejoin="round"/>
<path d="M2.82031 13.2107H7.27344" stroke="white" stroke-width="1.52171" stroke-miterlimit="10" stroke-linecap="round" stroke-linejoin="round"/>
<path d="M13.2109 2.59766V7.05078" stroke="white" stroke-width="1.52171" stroke-miterlimit="10" stroke-linecap="round" stroke-linejoin="round"/>
<path d="M28.4465 28.4463L31.5954 31.5952" stroke="white" stroke-width="1.52171" stroke-miterlimit="10" stroke-linecap="round" stroke-linejoin="round"/>
<path d="M24.7151 30.9492V35.4023" stroke="white" stroke-width="1.52171" stroke-miterlimit="10" stroke-linecap="round" stroke-linejoin="round"/>
<path d="M30.9495 24.7148H35.4026" stroke="white" stroke-width="1.52171" stroke-miterlimit="10" stroke-linecap="round" stroke-linejoin="round"/>
</g>
</g>
</g>
<defs>
<clipPath id="clip0_3231_9485">
<rect width="38" height="38" fill="white"/>
</clipPath>
</defs>
</svg>
