<svg width="31" height="31" viewBox="0 0 31 31" fill="none" xmlns="http://www.w3.org/2000/svg">
<circle cx="15.5" cy="15.5" r="15.5" fill="#FF922D"/>
<g clip-path="url(#clip0_3674_1207)">
<path d="M10.1992 18.1288V18.6259L10.6956 18.6551C12.9908 18.7907 14.8696 17.3609 16 15.3465C17.1187 17.34 18.9909 18.791 21.3044 18.6551L21.8008 18.6259V18.1288C21.8008 14.8867 20.2877 13.8 19.072 12.9267C18.7647 12.7063 18.4845 12.5045 18.2518 12.2851C17.6035 12.9984 16.8251 13.3827 16 13.3827C15.1756 13.3827 14.3976 12.9984 13.7493 12.2844C13.5162 12.5042 13.2357 12.7059 12.928 12.9267C11.7123 13.8 10.1992 14.8867 10.1992 18.1288Z" fill="white"/>
<path d="M16 12.3281C17.5478 12.3281 18.6367 10.0253 18.6367 8.63672C18.6367 7.18283 17.4539 6 16 6C14.5461 6 13.3633 7.18283 13.3633 8.63672C13.3633 10.0267 14.4563 12.3281 16 12.3281Z" fill="white"/>
<path d="M23.9453 14.9649C23.9453 16.0044 23.7469 17.0146 23.3557 17.9674L24.3313 18.368C24.775 17.2875 25 16.1425 25 14.9649C25 11.7067 23.228 8.70036 20.3756 7.11914L19.8643 8.04157C22.3815 9.43699 23.9453 12.0899 23.9453 14.9649Z" fill="white"/>
<path d="M8.64429 17.9674C8.25307 17.0146 8.05469 16.0044 8.05469 14.9649C8.05469 12.0899 9.61844 9.43699 12.1357 8.04157L11.6243 7.11914C8.77195 8.70036 7 11.7067 7 14.9649C7 16.1425 7.22496 17.2875 7.66864 18.368L8.64429 17.9674Z" fill="white"/>
<path d="M23.9799 19.8577C23.8836 19.8694 19.2457 18.7681 16.0004 22.6157C12.7304 18.7239 8.15302 19.8739 8.02009 19.8577C8.02382 19.8658 8.11807 21.7054 9.43397 22.9452H7V23.9999H25V22.9452H22.5373C23.9123 21.7054 23.913 20.1022 23.9799 19.8577Z" fill="white"/>
<path d="M16 17.166C15.2048 18.1042 14.4374 18.7927 13.2902 19.2624C13.2789 19.2849 13.2673 19.307 13.2554 19.3292C14.1804 19.6917 15.1544 20.2933 16.0028 21.0866C16.8559 20.295 17.8547 19.6876 18.7521 19.3436C18.738 19.3169 18.7236 19.2898 18.7099 19.2624C17.5696 18.7955 16.7992 18.1104 16 17.166Z" fill="white"/>
</g>
<defs>
<clipPath id="clip0_3674_1207">
<rect width="18" height="18" fill="white" transform="translate(7 6)"/>
</clipPath>
</defs>
</svg>
