<svg width="12" height="20" viewBox="0 0 12 20" fill="none" xmlns="http://www.w3.org/2000/svg">
<path d="M11.9543 9.33887C11.9543 9.01527 11.6919 8.75293 11.3684 8.75293C11.0448 8.75293 10.7824 9.01527 10.7824 9.33887C10.7824 11.9759 8.63707 14.1213 6.00003 14.1213C3.363 14.1213 1.21765 11.9759 1.21765 9.33887C1.21765 9.01527 0.955308 8.75293 0.631714 8.75293C0.30812 8.75293 0.0457764 9.01527 0.0457764 9.33887C0.0457764 12.4243 2.40492 14.969 5.4141 15.2643V16.4747H4.82328C3.20246 16.4747 1.88382 17.7934 1.88382 19.4142C1.88382 19.7378 2.14617 20.0001 2.46976 20.0001H9.53031C9.8539 20.0001 10.1162 19.7378 10.1162 19.4142C10.1162 17.7934 8.79761 16.4747 7.17679 16.4747H6.58597V15.2643C9.59515 14.969 11.9543 12.4243 11.9543 9.33887Z" fill="#FF922D"/>
<path d="M4.27619 5.88379C4.59979 5.88379 4.86213 6.14613 4.86213 6.46973C4.86213 6.79332 4.59979 7.05566 4.27619 7.05566H2.47221V8.2373H4.27619C4.59979 8.2373 4.86213 8.49965 4.86213 8.82324C4.86213 9.14684 4.59979 9.40918 4.27619 9.40918H2.47221V9.41164C2.47221 11.3569 4.05479 12.9395 6.00006 12.9395C7.94533 12.9395 9.52791 11.3569 9.52791 9.41164V9.40918H7.72385C7.40025 9.40918 7.13791 9.14684 7.13791 8.82324C7.13791 8.49965 7.40025 8.2373 7.72385 8.2373H9.52783V7.05566H7.72385C7.40025 7.05566 7.13791 6.79332 7.13791 6.46973C7.13791 6.14613 7.40025 5.88379 7.72385 5.88379H9.52783V4.70215H7.72385C7.40025 4.70215 7.13791 4.4398 7.13791 4.11621C7.13791 3.79262 7.40025 3.53027 7.72385 3.53027H9.52783V3.52785C9.52787 1.58258 7.94525 0 6.00002 0C4.05479 0 2.47217 1.58258 2.47217 3.52785V3.53027H4.27615C4.59975 3.53027 4.86209 3.79262 4.86209 4.11621C4.86209 4.4398 4.59975 4.70215 4.27615 4.70215H2.47217V5.88379H4.27619Z" fill="#FF922D"/>
</svg>
