<svg width="12" height="20" viewBox="0 0 12 20" fill="none" xmlns="http://www.w3.org/2000/svg">
<path d="M6.35718 8.38743V10.0003H10.3899V9.52494C10.3865 9.13851 10.1744 8.78414 9.83537 8.59864L7.44953 7.27832L6.35718 8.38743Z" fill="#FF922D"/>
<path d="M4.22098 4.73116C4.3573 5.10728 4.55988 5.45599 4.81913 5.76071C4.89241 5.85738 4.93245 5.97523 4.93319 6.09656V6.6483L6.00004 7.7319L7.06688 6.6483V6.09656C7.06724 5.97738 7.10591 5.86148 7.17712 5.76594C7.43777 5.45993 7.64152 5.10971 7.77874 4.73186C7.82577 4.50773 7.93956 4.30309 8.10518 4.14489C8.18549 4.06997 8.23142 3.96524 8.23213 3.8554V3.123C8.23217 3.05988 8.21674 2.99773 8.18713 2.94199L8.14248 2.85687C8.05995 2.69883 8.01662 2.52321 8.01623 2.34489V1.29164C7.99327 0.557791 7.38129 -0.0194208 6.64732 0.000500554H5.35271C4.61874 -0.0194208 4.00681 0.557752 3.98384 1.29164V2.34489C3.98345 2.52337 3.94001 2.6991 3.85724 2.85722L3.81329 2.94164C3.78345 2.99742 3.76791 3.05972 3.76794 3.123V3.85544C3.76869 3.96544 3.81474 4.07028 3.89525 4.14524C4.06055 4.30313 4.17411 4.50742 4.22098 4.73116Z" fill="#FF922D"/>
<path d="M3.8572 12.5H11.7142V10.7144H0.285889V12.5H2.42869C2.62591 12.5 2.78583 12.6599 2.78583 12.8572C2.78583 13.0544 2.62595 13.2143 2.42869 13.2143H1.45223L3.06793 19.9998H8.93208L10.5478 13.2143H3.8572C3.65998 13.2143 3.50006 13.0544 3.50006 12.8572C3.50006 12.6599 3.65998 12.5 3.8572 12.5Z" fill="#FF922D"/>
<path d="M5.6429 8.38755L4.55042 7.27832L2.15978 8.60149C1.82315 8.78742 1.61304 9.1405 1.61011 9.52502V10.0004H5.64286L5.6429 8.38755Z" fill="#FF922D"/>
</svg>
