<svg width="52" height="62" viewBox="0 0 52 62" fill="none" xmlns="http://www.w3.org/2000/svg">
<path d="M47.3554 9.64472V6.73314C47.3554 5.53032 46.2729 4.61703 45.0873 4.81937L7.55661 11.227" stroke="#FF922D" stroke-width="0.996094" stroke-miterlimit="10" stroke-linecap="round" stroke-linejoin="round"/>
<path d="M4.64444 55.2675V59.1503C4.64444 60.2225 5.51365 61.0917 6.58582 61.0917H45.4139C46.4861 61.0917 47.3553 60.2225 47.3553 59.1503V25.7442" stroke="#FF922D" stroke-width="0.996094" stroke-miterlimit="10" stroke-linecap="round" stroke-linejoin="round"/>
<path d="M46.0227 4.98083L15.7754 17.4356C14.9414 17.779 13.9806 17.5028 13.4564 16.7688L10.6264 12.8068C9.91819 11.8154 8.77483 11.227 7.5565 11.227C5.94814 11.227 4.64444 12.5308 4.64444 14.139V51.3848" stroke="#FF922D" stroke-width="0.996094" stroke-miterlimit="10" stroke-linecap="round" stroke-linejoin="round"/>
<path d="M26.4812 40.4662L22.1172 42.6482L24.2992 38.2842C24.6725 37.5377 25.1637 36.8562 25.7539 36.266L48.2084 13.8114C48.5874 13.4324 49.2021 13.4324 49.5812 13.8114L50.9541 15.1843C51.3331 15.5633 51.3331 16.178 50.9541 16.5571L28.4993 39.0115C27.9091 39.6017 27.2277 40.0929 26.4812 40.4662Z" stroke="#FF922D" stroke-width="0.996094" stroke-miterlimit="10" stroke-linecap="round" stroke-linejoin="round"/>
<path d="M26.2354 35.7849L28.981 38.5305" stroke="#FF922D" stroke-width="0.996094" stroke-miterlimit="10" stroke-linecap="round" stroke-linejoin="round"/>
<path d="M46.1492 15.8708L48.8948 18.6164" stroke="#FF922D" stroke-width="0.996094" stroke-miterlimit="10" stroke-linecap="round" stroke-linejoin="round"/>
<path d="M11.4393 26.1467L14.3514 29.0589L19.205 24.2053" stroke="#FF922D" stroke-width="0.996094" stroke-miterlimit="10" stroke-linecap="round" stroke-linejoin="round"/>
<path d="M25.0292 25.1757H30.8535" stroke="#FF922D" stroke-width="0.996094" stroke-miterlimit="10" stroke-linecap="round" stroke-linejoin="round"/>
<path d="M25.0292 29.0587H26.9706" stroke="#FF922D" stroke-width="0.996094" stroke-miterlimit="10" stroke-linecap="round" stroke-linejoin="round"/>
<path d="M37.6484 35.8534H40.5605" stroke="#FF922D" stroke-width="0.996094" stroke-miterlimit="10" stroke-linecap="round" stroke-linejoin="round"/>
<path d="M33.7655 39.736H40.5605" stroke="#FF922D" stroke-width="0.996094" stroke-miterlimit="10" stroke-linecap="round" stroke-linejoin="round"/>
<path d="M11.4393 36.8244L14.3514 39.7364L19.205 34.883" stroke="#FF922D" stroke-width="0.996094" stroke-miterlimit="10" stroke-linecap="round" stroke-linejoin="round"/>
<path d="M11.4393 47.5016L14.3514 50.4138L19.205 45.5602" stroke="#FF922D" stroke-width="0.996094" stroke-miterlimit="10" stroke-linecap="round" stroke-linejoin="round"/>
<path d="M25.0292 46.5316H40.5605" stroke="#FF922D" stroke-width="0.996094" stroke-miterlimit="10" stroke-linecap="round" stroke-linejoin="round"/>
<path d="M25.0292 50.4141H40.5605" stroke="#FF922D" stroke-width="0.996094" stroke-miterlimit="10" stroke-linecap="round" stroke-linejoin="round"/>
<path d="M4.64447 57.2089H2.70309C1.63093 57.2089 0.761719 56.3397 0.761719 55.2676V2.84958C0.761719 1.77741 1.63093 0.908203 2.70309 0.908203H41.5312C42.6034 0.908203 43.4726 1.77741 43.4726 2.84958V4.79095" stroke="#FF922D" stroke-width="0.996094" stroke-miterlimit="10" stroke-linecap="round" stroke-linejoin="round"/>
</svg>
