<svg width="59" height="61" viewBox="0 0 59 61" fill="none" xmlns="http://www.w3.org/2000/svg">
<path fill-rule="evenodd" clip-rule="evenodd" d="M33.1292 37.405L20.0472 54.9479C19.7102 55.3971 19.8013 56.0343 20.2505 56.3712C20.6997 56.7082 21.3369 56.6171 21.6739 56.1679L34.759 38.6198C34.9769 38.3292 35.0232 37.9445 34.8806 37.6105C34.7379 37.2764 34.4279 37.044 34.0673 37.0005C33.7066 36.957 33.3503 37.1093 33.1324 37.3998L33.1292 37.405Z" fill="#FF922D"/>
<path d="M1.21896 42.23L6.64575 44.0426C6.82791 44.109 7.02019 44.1433 7.21403 44.1442C7.52902 44.1429 7.83794 44.0573 8.10862 43.8962L26.6723 32.7743C26.9075 33.443 27.1919 34.0935 27.5232 34.7202L24.2701 39.0814C23.9978 39.4507 23.8815 39.9122 23.9458 40.3664L24.2142 42.2493L22.1961 42.8471C21.4455 43.0651 20.9327 43.7572 20.9426 44.5387C20.9623 44.964 21.0149 45.3872 21.1002 45.8044L21.1796 46.3128L19.1463 46.9136C18.3211 47.1642 17.8023 47.9792 17.9243 48.833L18.1449 50.3895L16.191 50.971C14.6011 51.4365 13.6472 53.0578 14.0123 54.6735L15.1306 59.6307C15.2989 60.4235 15.9956 60.993 16.8061 61C16.8518 61 16.8986 61 16.9453 60.9939L22.6486 60.6035C23.1671 60.5813 23.6475 60.3251 23.955 59.9072L37.3074 42.0043C42.354 43.0229 47.557 41.2321 50.9074 37.3232C54.258 33.4142 55.232 27.9986 53.4535 23.1672C57.7614 20.2202 59.8257 14.9365 58.6569 9.84974C57.4881 4.76297 53.3241 0.910459 48.1621 0.139647C43 -0.631166 37.8923 1.83686 35.2883 6.36024C31.2511 6.31079 27.3842 7.98395 24.6563 10.9605C21.9284 13.937 20.5981 17.9348 20.9985 21.9523L16.3097 24.7562C15.927 24.9967 15.652 25.376 15.5421 25.8145L15.0775 27.6546L12.9852 27.439C12.2057 27.3517 11.4641 27.7962 11.1736 28.5249C11.0296 28.9334 10.9174 29.3525 10.8382 29.7784L10.7222 30.2653L8.63104 30.0539C7.76408 29.9516 6.9555 30.5079 6.74117 31.3541L6.35791 32.8791L4.33283 32.6757C3.65995 32.6002 2.98099 32.7488 2.40127 33.0986C1.60211 33.5656 1.05205 34.3641 0.90075 35.2773L0.0519029 40.278C-0.114292 41.1312 0.388821 41.9725 1.21896 42.23ZM50.6028 34.2677C47.8692 38.9326 42.3762 41.2225 37.1386 39.8806C36.7398 39.7791 36.3193 39.928 36.0732 40.2578L22.4087 58.5835L17.0622 58.9494L15.9927 54.2343C15.9217 53.9158 15.9918 53.5822 16.1849 53.3193C16.3298 53.1283 16.5322 52.9889 16.7623 52.9217L18.9603 52.268C19.7923 52.0265 20.317 51.2063 20.1874 50.3497L19.9667 48.7932L22 48.1924C22.8334 47.9503 23.3581 47.1277 23.2261 46.2699L23.1052 45.485C23.0583 45.1881 23.0137 44.9147 22.9892 44.7306L25.0408 44.1237C25.8695 43.8794 26.3905 43.0606 26.2607 42.2064L25.9741 40.1934L29.5456 35.404C29.7911 35.0751 29.8148 34.6307 29.6055 34.2776C26.4992 29.0511 27.7154 22.3352 32.4573 18.53C37.1991 14.7248 44.019 14.9919 48.4487 19.1562C49.4275 20.0706 50.2463 21.1423 50.8713 22.327C49.7012 22.887 48.4376 23.2261 47.1444 23.3274C46.8282 21.4271 45.2182 20.0117 43.2929 19.9419C41.3677 19.8721 39.6594 21.167 39.2063 23.0395C38.7533 24.9119 39.6809 26.8446 41.4251 27.6624C43.1694 28.4803 45.2483 27.9575 46.3981 26.4119C46.6284 26.0945 46.8103 25.7447 46.9379 25.3738C48.5765 25.2934 50.1838 24.8938 51.6693 24.1976C52.7923 27.5502 52.4031 31.2251 50.6028 34.2677ZM41.8599 22.4067C42.1419 22.1744 42.4816 22.0229 42.843 21.9685C42.9416 21.9544 43.0412 21.9472 43.1408 21.9472C43.9994 21.9497 44.7639 22.4912 45.051 23.3004C43.947 23.1735 42.8701 22.8718 41.8608 22.4067H41.8599ZM44.6667 25.3061C44.1551 25.9042 43.343 26.1508 42.5852 25.9383C41.8273 25.7257 41.2619 25.0928 41.1359 24.3159C42.2582 24.8173 43.4482 25.1509 44.6677 25.306L44.6667 25.3061ZM46.2883 2.03546C50.8985 2.02879 54.9905 4.98695 56.4295 9.36688C57.8686 13.7468 56.3285 18.5554 52.6128 21.2843C51.8905 19.9355 50.952 18.7142 49.8343 17.6691C49.5293 17.3875 49.2162 17.1323 48.8969 16.8802C48.6992 16.1229 48.4381 15.3835 48.1161 14.6701C46.4472 10.9722 43.2667 8.17218 39.3873 6.98546C38.7872 6.80497 38.1759 6.66403 37.5574 6.5636C39.5515 3.71636 42.8124 2.0251 46.2883 2.03546ZM2.91475 35.6157C2.96741 35.2913 3.16291 35.0077 3.44741 34.8431C3.65018 34.7194 3.88845 34.6668 4.12446 34.6937L6.41081 34.9276C7.2705 35.0259 8.06764 34.4655 8.26612 33.6233L8.65046 32.0984L10.7641 32.3159C11.6273 32.397 12.4204 31.8354 12.6306 30.9943L12.8095 30.243C12.8806 29.9452 12.9437 29.6676 12.9914 29.4837L15.1203 29.7023C15.979 29.7959 16.7743 29.239 16.9796 28.4L17.4818 26.4176L22.6045 23.3555C22.9564 23.1454 23.1475 22.7445 23.0894 22.3389C22.2194 16.4143 25.7818 10.735 31.4945 8.93942C37.2072 7.1438 43.3781 9.76373 46.0541 15.1208C43.7965 14.0747 41.3018 13.6471 38.8247 13.8816C34.8191 14.2406 31.1525 16.2775 28.7311 19.4887C26.3099 22.6998 25.3602 26.7855 26.1168 30.7353L7.18353 42.0785L2.10546 40.3827L2.91475 35.6157Z" fill="#FF922D"/>
<path fill-rule="evenodd" clip-rule="evenodd" d="M23.6897 29.8188C24.1636 29.5271 24.315 28.9085 24.0292 28.431C23.7434 27.9534 23.1268 27.7945 22.6457 28.0743L6.38655 37.8208C6.07 38.0049 5.877 38.3451 5.88117 38.7113C5.88534 39.0775 6.08632 39.4131 6.40704 39.5899C6.72775 39.7667 7.11876 39.7573 7.43066 39.5654L23.6897 29.8188Z" fill="#FF922D"/>
</svg>
