<svg width="46" height="46" viewBox="0 0 46 46" fill="none" xmlns="http://www.w3.org/2000/svg">
<g clip-path="url(#clip0_3231_9520)">
<path d="M39.9745 28.9154C39.1699 28.1108 37.8605 28.1109 37.0557 28.9155L32.2057 33.7657L30.5103 32.0702C29.7057 31.2657 28.3963 31.2657 27.5916 32.0702C26.7869 32.875 26.7869 34.1844 27.5916 34.9892L30.7464 38.1439C31.1362 38.5336 31.6545 38.7483 32.2058 38.7483C32.7571 38.7483 33.2754 38.5336 33.6652 38.1438L39.9747 31.8344C40.3645 31.4446 40.5792 30.9262 40.5792 30.3749C40.579 29.8238 40.3644 29.3054 39.9745 28.9154ZM39.0171 30.8771L32.7076 37.1866C32.5734 37.3208 32.3951 37.3946 32.2054 37.3946C32.0158 37.3946 31.8374 37.3208 31.7033 37.1866L28.5485 34.0319C28.4146 33.8977 28.3407 33.7194 28.3407 33.5297C28.3407 33.34 28.4146 33.1617 28.5487 33.0276C28.6871 32.8891 28.869 32.8199 29.0508 32.8199C29.2327 32.8199 29.4145 32.8891 29.553 33.0276L31.7269 35.2016C31.8538 35.3285 32.026 35.3998 32.2055 35.3998C32.385 35.3998 32.5572 35.3285 32.6841 35.2016L38.0127 29.8729C38.2896 29.5959 38.7402 29.5959 39.017 29.8727C39.1512 30.007 39.2251 30.1853 39.2251 30.375C39.2252 30.5647 39.1512 30.743 39.0171 30.8771Z" fill="white"/>
<path d="M43.1564 25.8609V20.4935C43.1564 20.1195 42.8533 19.8166 42.4795 19.8166C42.1056 19.8166 41.8026 20.1195 41.8026 20.4935V24.4716C40.9006 23.6868 39.8932 23.0429 38.8152 22.5554C38.7749 22.537 38.7341 22.5196 38.6935 22.5017C38.6523 22.4837 38.6113 22.4653 38.57 22.4476C38.4977 22.4167 38.4249 22.3869 38.3519 22.3574C38.3426 22.3536 38.3334 22.3497 38.324 22.3459C37.72 22.1032 37.0923 21.9076 36.4454 21.7632V17.786C36.4454 17.4121 36.1423 17.1091 35.7685 17.1091H31.4075C31.0336 17.1091 30.7306 17.4121 30.7306 17.786V21.8526C28.6228 22.3922 26.6915 23.4912 25.1167 25.0757C24.8532 25.3409 24.8546 25.7695 25.1197 26.033C25.3848 26.2963 25.8134 26.295 26.077 26.03C28.1316 23.9624 30.8682 22.8237 33.7828 22.8237C33.8794 22.8237 33.9758 22.8251 34.072 22.8276C34.0888 22.828 34.1055 22.829 34.1223 22.8295C34.2028 22.832 34.2833 22.835 34.3635 22.8393C34.3763 22.8399 34.3888 22.841 34.4015 22.8417C34.4867 22.8466 34.5719 22.8521 34.6568 22.8589C34.6629 22.8595 34.6691 22.86 34.6753 22.8606C35.9259 22.9636 37.1398 23.2819 38.2666 23.7928C38.3054 23.8105 38.3438 23.8289 38.3824 23.847C38.422 23.8655 38.4618 23.8839 38.5012 23.9029C38.5705 23.9365 38.6395 23.9708 38.7079 24.0058C38.7147 24.0092 38.7215 24.0125 38.7282 24.016C42.2389 25.8185 44.6464 29.477 44.6464 33.6872C44.6464 39.6773 39.7731 44.5506 33.783 44.5506C28.168 44.5506 23.5343 40.2685 22.976 34.7984C22.9757 34.7958 22.9756 34.7932 22.9753 34.7906C22.9667 34.7046 22.9589 34.6181 22.9522 34.5316C22.9508 34.513 22.9498 34.4943 22.9484 34.4757C22.9432 34.4031 22.9384 34.3306 22.9345 34.2576C22.9324 34.2165 22.9311 34.1752 22.9295 34.134C22.9273 34.0814 22.9249 34.029 22.9235 33.9764C22.921 33.8803 22.9196 33.7839 22.9196 33.6874C22.9196 31.6941 23.464 29.7452 24.4938 28.0516C24.6881 27.7322 24.5866 27.3158 24.2672 27.1216C23.9477 26.9273 23.5314 27.0288 23.3373 27.3483C22.1784 29.2539 21.5659 31.4459 21.5659 33.6874C21.5659 33.7877 21.5674 33.8878 21.5697 33.9877C21.5702 34.0106 21.5712 34.0334 21.5719 34.0563C21.5743 34.136 21.5771 34.2158 21.581 34.2953C21.5819 34.3144 21.5831 34.3333 21.5842 34.3524C21.5887 34.4397 21.5944 34.527 21.6008 34.6141C21.6014 34.6224 21.602 34.6308 21.6027 34.6392C21.6894 35.7751 21.9314 36.8804 22.3273 37.9425H1.35368V26.9985C1.35368 26.6246 1.05063 26.3216 0.676793 26.3216C0.302953 26.3216 0 26.6246 0 26.9985V38.6191C0 38.993 0.303043 39.296 0.676883 39.296H22.9316C24.9672 43.2182 29.0671 45.9043 33.7829 45.9043C40.5194 45.9043 46 40.4237 46 33.6873C46 30.712 44.9305 27.9822 43.1564 25.8609ZM35.0917 21.4701H32.0844V18.4629H35.0917V21.4701Z" fill="white"/>
<path d="M11.7955 17.1091H7.43445C7.06061 17.1091 6.75757 17.4121 6.75757 17.786V22.1469C6.75757 22.5209 7.06061 22.8238 7.43445 22.8238H11.7955C12.1693 22.8238 12.4724 22.5209 12.4724 22.1469V17.786C12.4724 17.4121 12.1693 17.1091 11.7955 17.1091ZM11.1186 21.4701H8.11133V18.4629H11.1187L11.1186 21.4701Z" fill="white"/>
<path d="M19.7864 17.1091H15.4254C15.0516 17.1091 14.7485 17.4121 14.7485 17.786V22.1469C14.7485 22.5209 15.0516 22.8238 15.4254 22.8238H19.7864C20.1603 22.8238 20.4633 22.5209 20.4633 22.1469V17.786C20.4632 17.4121 20.1602 17.1091 19.7864 17.1091ZM19.1096 21.4701H16.1022V18.4629H19.1096V21.4701Z" fill="white"/>
<path d="M27.7772 17.1091H23.4161C23.0423 17.1091 22.7393 17.4121 22.7393 17.786V22.1469C22.7393 22.5209 23.0423 22.8238 23.4161 22.8238H27.7772C28.151 22.8238 28.454 22.5209 28.454 22.1469V17.786C28.454 17.4121 28.151 17.1091 27.7772 17.1091ZM27.1004 21.4701H24.093V18.4629H27.1004V21.4701Z" fill="white"/>
<path d="M11.7955 26.4717H7.43445C7.06061 26.4717 6.75757 26.7746 6.75757 27.1486V31.5096C6.75757 31.8835 7.06061 32.1865 7.43445 32.1865H11.7955C12.1693 32.1865 12.4724 31.8835 12.4724 31.5096V27.1486C12.4724 26.7746 12.1693 26.4717 11.7955 26.4717ZM11.1186 30.8327H8.11133V27.8254H11.1187L11.1186 30.8327Z" fill="white"/>
<path d="M19.7864 26.4717H15.4254C15.0516 26.4717 14.7485 26.7746 14.7485 27.1486V31.5096C14.7485 31.8835 15.0516 32.1865 15.4254 32.1865H19.7864C20.1603 32.1865 20.4633 31.8835 20.4633 31.5096V27.1486C20.4632 26.7746 20.1603 26.4717 19.7864 26.4717ZM19.1096 30.8327H16.1022V27.8254H19.1096V30.8327Z" fill="white"/>
<path d="M42.5028 5.22791H42.4796H38.2739V2.78183C38.2739 1.30084 37.069 0.0959473 35.5881 0.0959473C34.1071 0.0959473 32.9023 1.30084 32.9023 2.78183V5.22791H10.3008V2.78183C10.3008 1.30084 9.09587 0.0959473 7.61498 0.0959473C6.13408 0.0959473 4.92919 1.30084 4.92919 2.78183V5.22791H0.700152H0.676883C0.303043 5.22791 0 5.53086 0 5.9047V24.2914C0 24.6652 0.303043 24.9682 0.676883 24.9682C1.05072 24.9682 1.35377 24.6652 1.35377 24.2913V13.9078H41.8028V17.7864C41.8028 18.1603 42.1058 18.4632 42.4797 18.4632C42.8535 18.4632 43.1565 18.1603 43.1565 17.7864V13.4046C43.1713 13.3491 43.1798 13.2911 43.1798 13.231V5.9047C43.1797 5.53086 42.8767 5.22791 42.5028 5.22791ZM34.2561 2.78183C34.2561 2.04726 34.8537 1.44971 35.5881 1.44971C36.3227 1.44971 36.9201 2.04735 36.9201 2.78183V8.07443C36.9201 8.16625 36.9108 8.25591 36.8931 8.34252C36.7686 8.94897 36.2308 9.40654 35.5881 9.40654C34.8535 9.40654 34.2561 8.8089 34.2561 8.07443V2.78183ZM6.28295 2.78183C6.28295 2.04726 6.8805 1.44971 7.61498 1.44971C8.34945 1.44971 8.947 2.04735 8.947 2.78183V8.07443C8.947 8.80899 8.34936 9.40654 7.61498 9.40654C6.88059 9.40654 6.28295 8.80881 6.28295 8.07434V2.78183ZM41.8027 12.554H1.37704V6.5815H4.92919V8.07434C4.92919 9.55532 6.13399 10.7602 7.61498 10.7602C9.09596 10.7602 10.3008 9.55532 10.3008 8.07434V6.5815H32.9025V8.07434C32.9025 9.55532 34.1074 10.7602 35.5883 10.7602C37.0693 10.7602 38.2741 9.55532 38.2741 8.07434V6.5815H41.8029V12.554H41.8027Z" fill="white"/>
</g>
<defs>
<clipPath id="clip0_3231_9520">
<rect width="46" height="46" fill="white"/>
</clipPath>
</defs>
</svg>
