<svg width="41" height="41" viewBox="0 0 41 41" fill="none" xmlns="http://www.w3.org/2000/svg">
<g clip-path="url(#clip0_3231_9477)">
<path fill-rule="evenodd" clip-rule="evenodd" d="M22.9393 25.141L14.1465 36.9322C13.92 37.2341 13.9812 37.6624 14.2832 37.8889C14.5851 38.1153 15.0134 38.0541 15.2398 37.7522L24.0347 25.9576C24.1812 25.7623 24.2124 25.5037 24.1165 25.2792C24.0206 25.0546 23.8122 24.8984 23.5698 24.8692C23.3274 24.84 23.0879 24.9423 22.9415 25.1376L22.9393 25.141Z" fill="white"/>
<path d="M1.49147 28.3841L5.13898 29.6024C5.26142 29.647 5.39066 29.6701 5.52094 29.6707C5.73266 29.6698 5.9403 29.6123 6.12223 29.504L18.5995 22.0287C18.7576 22.4781 18.9487 22.9153 19.1714 23.3365L16.9848 26.2678C16.8019 26.5161 16.7236 26.8262 16.7669 27.1315L16.9473 28.397L15.5909 28.7989C15.0863 28.9454 14.7417 29.4106 14.7483 29.9358C14.7616 30.2217 14.7969 30.5061 14.8543 30.7866L14.9076 31.1282L13.541 31.5321C12.9864 31.7005 12.6376 32.2483 12.7196 32.8222L12.8679 33.8683L11.5546 34.2592C10.486 34.572 9.84485 35.6618 10.0903 36.7478L10.8419 40.0796C10.955 40.6125 11.4233 40.9953 11.968 41C11.9988 41 12.0303 41 12.0617 40.9959L15.895 40.7335C16.2435 40.7185 16.5664 40.5464 16.773 40.2655L25.7476 28.2324C29.1396 28.917 32.6367 27.7134 34.8886 25.0861C37.1407 22.4587 37.7953 18.8188 36.5999 15.5714C39.4954 13.5906 40.8829 10.0393 40.0973 6.62032C39.3117 3.20134 36.513 0.611948 33.0434 0.0938608C29.5738 -0.424226 26.1407 1.23461 24.3905 4.27491C21.677 4.24168 19.0779 5.36626 17.2444 7.36686C15.411 9.36746 14.5168 12.0545 14.7859 14.7548L11.6345 16.6394C11.3772 16.8011 11.1924 17.056 11.1185 17.3507L10.8062 18.5875L9.39995 18.4426C8.87602 18.3839 8.37755 18.6827 8.18233 19.1724C8.08552 19.447 8.01008 19.7287 7.95683 20.015L7.87892 20.3423L6.47336 20.2001C5.89065 20.1314 5.34718 20.5053 5.20312 21.0741L4.94552 22.099L3.5844 21.9623C3.13214 21.9116 2.67579 22.0115 2.28614 22.2466C1.749 22.5605 1.37929 23.0972 1.27759 23.711L0.707057 27.0721C0.595352 27.6455 0.93351 28.211 1.49147 28.3841ZM34.6839 23.0324C32.8466 26.1678 29.1545 27.707 25.6342 26.805C25.3662 26.7368 25.0835 26.8369 24.9181 27.0585L15.7337 39.3758L12.1402 39.6218L11.4214 36.4525C11.3736 36.2385 11.4207 36.0143 11.5505 35.8376C11.6479 35.7092 11.784 35.6155 11.9387 35.5703L13.416 35.131C13.9752 34.9687 14.3279 34.4173 14.2407 33.8416L14.0924 32.7954L15.4591 32.3916C16.0192 32.2289 16.3719 31.676 16.2831 31.0994L16.2019 30.5719C16.1704 30.3723 16.1404 30.1886 16.124 30.0648L17.5029 29.6569C18.0599 29.4927 18.41 28.9424 18.3228 28.3682L18.1302 27.0153L20.5307 23.7962C20.6957 23.5751 20.7116 23.2764 20.5709 23.039C18.4831 19.5261 19.3005 15.0122 22.4877 12.4546C25.6749 9.897 30.2587 10.0765 33.236 12.8755C33.8939 13.4901 34.4443 14.2104 34.8644 15.0067C34.0779 15.383 33.2286 15.611 32.3594 15.6791C32.1469 14.4018 31.0647 13.4505 29.7707 13.4036C28.4767 13.3567 27.3285 14.227 27.024 15.4855C26.7194 16.7441 27.3429 18.0431 28.5153 18.5928C29.6877 19.1425 31.085 18.7911 31.8578 17.7522C32.0126 17.5389 32.1349 17.3038 32.2206 17.0545C33.322 17.0005 34.4023 16.7319 35.4007 16.2639C36.1555 18.5173 35.8939 20.9874 34.6839 23.0324ZM28.8075 15.0603C28.997 14.9041 29.2254 14.8023 29.4683 14.7657C29.5346 14.7562 29.6015 14.7514 29.6685 14.7514C30.2456 14.7531 30.7594 15.117 30.9524 15.6609C30.2103 15.5756 29.4865 15.3729 28.8081 15.0603H28.8075ZM30.6941 17.009C30.3502 17.411 29.8043 17.5768 29.295 17.4339C28.7856 17.2911 28.4056 16.8656 28.3209 16.3435C29.0753 16.6805 29.875 16.9047 30.6947 17.009L30.6941 17.009ZM31.784 1.3681C34.8826 1.36361 37.633 3.35188 38.6002 6.29577C39.5674 9.23966 38.5323 12.4717 36.0348 14.3059C35.5494 13.3993 34.9186 12.5784 34.1673 11.876C33.9623 11.6867 33.7519 11.5152 33.5373 11.3457C33.4044 10.8367 33.2289 10.3397 33.0125 9.86025C31.8908 7.37479 29.7531 5.49278 27.1456 4.69515C26.7423 4.57383 26.3314 4.4791 25.9156 4.4116C27.2559 2.49788 29.4477 1.36113 31.784 1.3681ZM2.63127 23.9384C2.66666 23.7204 2.79806 23.5297 2.98928 23.4192C3.12557 23.336 3.28572 23.3006 3.44435 23.3187L4.98108 23.4759C5.5589 23.542 6.09468 23.1653 6.22809 22.5993L6.48641 21.5743L7.90703 21.7205C8.48725 21.7751 9.02032 21.3976 9.16157 20.8322L9.28184 20.3273C9.32965 20.1271 9.37201 19.9405 9.40412 19.8169L10.835 19.9638C11.4122 20.0268 11.9467 19.6524 12.0847 19.0885L12.4222 17.7561L15.8654 15.698C16.1019 15.5567 16.2303 15.2873 16.1913 15.0147C15.6065 11.0325 18.0009 7.21536 21.8406 6.00846C25.6803 4.80157 29.828 6.5625 31.6265 10.1632C30.1092 9.46003 28.4324 9.17264 26.7675 9.33023C24.0752 9.57157 21.6107 10.9406 19.9833 13.099C18.3559 15.2572 17.7175 18.0033 18.2261 20.6582L5.50044 28.2823L2.08731 27.1425L2.63127 23.9384Z" fill="white"/>
<path fill-rule="evenodd" clip-rule="evenodd" d="M16.5947 20.0422C16.9132 19.8461 17.015 19.4303 16.8229 19.1094C16.6308 18.7884 16.2163 18.6815 15.893 18.8696L4.96472 25.4205C4.75196 25.5443 4.62224 25.7729 4.62504 26.0191C4.62785 26.2652 4.76293 26.4908 4.9785 26.6096C5.19406 26.7285 5.45687 26.7221 5.6665 26.5931L16.5947 20.0422Z" fill="white"/>
</g>
<defs>
<clipPath id="clip0_3231_9477">
<rect width="41" height="41" fill="white"/>
</clipPath>
</defs>
</svg>
