<svg width="32" height="32" viewBox="0 0 32 32" fill="none" xmlns="http://www.w3.org/2000/svg">
<path d="M16 0C7.17756 0 0 7.17756 0 16C0 24.8224 7.17756 32 16 32C24.8224 32 32 24.8224 32 16C32 7.17756 24.8224 0 16 0ZM8.37294 10.2516C10.4197 8.23781 13.1245 7.13006 16 7.13006C20.5322 7.13006 23.3534 9.89725 23.7531 10.3834C24.0591 10.7549 24.0342 11.2999 23.6921 11.6421C23.3218 12.0123 22.7236 12.0061 22.3598 11.6356C20.6604 9.93913 18.4022 9.00506 15.9999 9.00506C14.8537 9.00506 13.7391 9.21838 12.7034 9.62506L12.7031 9.62619C13.9224 10.2528 14.757 11.5222 14.757 12.9874C14.757 15.0739 13.0656 16.7653 10.9791 16.7653C8.89269 16.7653 7.20125 15.0739 7.20125 12.9874C7.20131 12.5851 7.23669 11.3695 8.37294 10.2516ZM23.6271 21.7484C21.5803 23.7622 18.8755 24.8699 16 24.8699C11.4678 24.8699 8.64656 22.1027 8.24694 21.6166C7.94088 21.2451 7.96581 20.7001 8.30794 20.3579C8.67819 19.9877 9.27637 19.9939 9.64019 20.3644C11.3396 22.0609 13.5978 22.9949 16.0001 22.9949C17.1463 22.9949 18.2609 22.7816 19.2966 22.3749L19.2969 22.3738C18.0776 21.7472 17.243 20.4777 17.243 19.0126C17.243 16.9261 18.9344 15.2347 21.0209 15.2347C23.1073 15.2347 24.7987 16.9261 24.7987 19.0126C24.7987 19.4149 24.7633 20.6305 23.6271 21.7484Z" fill="#FF922D"/>
</svg>
